<svg xmlns="http://www.w3.org/2000/svg" viewBox="0 0 899.25 400"><g><g><g><g><g><line x1="51.5625" y1="364.9921816281588" x2="46.5625" y2="364.9921816281588" style="visibility: inherit;" fill="rgb(0, 0, 0)" stroke="rgb(204, 204, 204)" stroke-width="1px"/><line x1="51.5625" y1="326.2294996072576" x2="46.5625" y2="326.2294996072576" style="visibility: inherit;" fill="rgb(0, 0, 0)" stroke="rgb(204, 204, 204)" stroke-width="1px"/><line x1="51.5625" y1="287.4668175863565" x2="46.5625" y2="287.4668175863565" style="visibility: inherit;" fill="rgb(0, 0, 0)" stroke="rgb(204, 204, 204)" stroke-width="1px"/><line x1="51.5625" y1="248.70413556545532" x2="46.5625" y2="248.70413556545532" style="visibility: inherit;" fill="rgb(0, 0, 0)" stroke="rgb(204, 204, 204)" stroke-width="1px"/><line x1="51.5625" y1="209.94145354455415" x2="46.5625" y2="209.94145354455415" style="visibility: inherit;" fill="rgb(0, 0, 0)" stroke="rgb(204, 204, 204)" stroke-width="1px"/><line x1="51.5625" y1="171.17877152365324" x2="46.5625" y2="171.17877152365324" style="visibility: inherit;" fill="rgb(0, 0, 0)" stroke="rgb(204, 204, 204)" stroke-width="1px"/><line x1="51.5625" y1="132.41608950275207" x2="46.5625" y2="132.41608950275207" style="visibility: inherit;" fill="rgb(0, 0, 0)" stroke="rgb(204, 204, 204)" stroke-width="1px"/><line x1="51.5625" y1="93.65340748185089" x2="46.5625" y2="93.65340748185089" style="visibility: inherit;" fill="rgb(0, 0, 0)" stroke="rgb(204, 204, 204)" stroke-width="1px"/><line x1="51.5625" y1="54.89072546094976" x2="46.5625" y2="54.89072546094976" style="visibility: inherit;" fill="rgb(0, 0, 0)" stroke="rgb(204, 204, 204)" stroke-width="1px"/><line x1="51.5625" y1="16.12804344004859" x2="46.5625" y2="16.12804344004859" style="visibility: inherit;" fill="rgb(0, 0, 0)" stroke="rgb(204, 204, 204)" stroke-width="1px"/></g><g transform="translate(41.5625, 0)"><text x="0" y="364.9921816281588" dx="0em" dy="0.3em" style="text-anchor: end; visibility: inherit; font-family: Roboto, sans-serif; font-size: 12px; font-weight: 200;" fill="rgb(255, 255, 255)" stroke="none" stroke-width="1px">0.48</text><text x="0" y="326.2294996072576" dx="0em" dy="0.3em" style="text-anchor: end; visibility: inherit; font-family: Roboto, sans-serif; font-size: 12px; font-weight: 200;" fill="rgb(255, 255, 255)" stroke="none" stroke-width="1px">0.5</text><text x="0" y="287.4668175863565" dx="0em" dy="0.3em" style="text-anchor: end; visibility: inherit; font-family: Roboto, sans-serif; font-size: 12px; font-weight: 200;" fill="rgb(255, 255, 255)" stroke="none" stroke-width="1px">0.52</text><text x="0" y="248.70413556545532" dx="0em" dy="0.3em" style="text-anchor: end; visibility: inherit; font-family: Roboto, sans-serif; font-size: 12px; font-weight: 200;" fill="rgb(255, 255, 255)" stroke="none" stroke-width="1px">0.54</text><text x="0" y="209.94145354455415" dx="0em" dy="0.3em" style="text-anchor: end; visibility: inherit; font-family: Roboto, sans-serif; font-size: 12px; font-weight: 200;" fill="rgb(255, 255, 255)" stroke="none" stroke-width="1px">0.56</text><text x="0" y="171.17877152365324" dx="0em" dy="0.3em" style="text-anchor: end; visibility: inherit; font-family: Roboto, sans-serif; font-size: 12px; font-weight: 200;" fill="rgb(255, 255, 255)" stroke="none" stroke-width="1px">0.58</text><text x="0" y="132.41608950275207" dx="0em" dy="0.3em" style="text-anchor: end; visibility: inherit; font-family: Roboto, sans-serif; font-size: 12px; font-weight: 200;" fill="rgb(255, 255, 255)" stroke="none" stroke-width="1px">0.6</text><text x="0" y="93.65340748185089" dx="0em" dy="0.3em" style="text-anchor: end; visibility: inherit; font-family: Roboto, sans-serif; font-size: 12px; font-weight: 200;" fill="rgb(255, 255, 255)" stroke="none" stroke-width="1px">0.62</text><text x="0" y="54.89072546094976" dx="0em" dy="0.3em" style="text-anchor: end; visibility: inherit; font-family: Roboto, sans-serif; font-size: 12px; font-weight: 200;" fill="rgb(255, 255, 255)" stroke="none" stroke-width="1px">0.64</text><text x="0" y="16.12804344004859" dx="0em" dy="0.3em" style="text-anchor: end; visibility: inherit; font-family: Roboto, sans-serif; font-size: 12px; font-weight: 200;" fill="rgb(255, 255, 255)" stroke="none" stroke-width="1px">0.66</text></g><line x1="51.5625" y1="0" x2="51.5625" y2="377" fill="rgb(0, 0, 0)" stroke="rgb(204, 204, 204)" stroke-width="1px"/></g></g><g transform="translate(51, 0)" clip-path="url(#clip_0)"><clipPath id="clip_0"><rect width="847" height="377"/></clipPath><g><g><g><line x1="21.756703787800724" y1="0" x2="21.756703787800724" y2="377" fill="rgb(0, 0, 0)" stroke="rgb(189, 189, 189)" stroke-width="1px" opacity="0.25"/><line x1="97.16339823793002" y1="0" x2="97.16339823793002" y2="377" fill="rgb(0, 0, 0)" stroke="rgb(189, 189, 189)" stroke-width="1px" opacity="0.25"/><line x1="172.5700926880593" y1="0" x2="172.5700926880593" y2="377" fill="rgb(0, 0, 0)" stroke="rgb(189, 189, 189)" stroke-width="1px" opacity="0.25"/><line x1="247.9767871381886" y1="0" x2="247.9767871381886" y2="377" fill="rgb(0, 0, 0)" stroke="rgb(189, 189, 189)" stroke-width="1px" opacity="0.25"/><line x1="323.38348158831786" y1="0" x2="323.38348158831786" y2="377" fill="rgb(0, 0, 0)" stroke="rgb(189, 189, 189)" stroke-width="1px" opacity="0.25"/><line x1="398.79017603844716" y1="0" x2="398.79017603844716" y2="377" fill="rgb(0, 0, 0)" stroke="rgb(189, 189, 189)" stroke-width="1px" opacity="0.25"/><line x1="474.1968704885764" y1="0" x2="474.1968704885764" y2="377" fill="rgb(0, 0, 0)" stroke="rgb(189, 189, 189)" stroke-width="1px" opacity="0.25"/><line x1="549.6035649387057" y1="0" x2="549.6035649387057" y2="377" fill="rgb(0, 0, 0)" stroke="rgb(189, 189, 189)" stroke-width="1px" opacity="0.25"/><line x1="625.010259388835" y1="0" x2="625.010259388835" y2="377" fill="rgb(0, 0, 0)" stroke="rgb(189, 189, 189)" stroke-width="1px" opacity="0.25"/><line x1="700.4169538389643" y1="0" x2="700.4169538389643" y2="377" fill="rgb(0, 0, 0)" stroke="rgb(189, 189, 189)" stroke-width="1px" opacity="0.25"/><line x1="775.8236482890936" y1="0" x2="775.8236482890936" y2="377" fill="rgb(0, 0, 0)" stroke="rgb(189, 189, 189)" stroke-width="1px" opacity="0.25"/></g><g><line x1="0" y1="364.9921816281588" x2="847.6875" y2="364.9921816281588" fill="rgb(0, 0, 0)" stroke="rgb(189, 189, 189)" stroke-width="1px" opacity="0.25"/><line x1="0" y1="326.2294996072576" x2="847.6875" y2="326.2294996072576" fill="rgb(0, 0, 0)" stroke="rgb(189, 189, 189)" stroke-width="1px" opacity="0.25"/><line x1="0" y1="287.4668175863565" x2="847.6875" y2="287.4668175863565" fill="rgb(0, 0, 0)" stroke="rgb(189, 189, 189)" stroke-width="1px" opacity="0.25"/><line x1="0" y1="248.70413556545532" x2="847.6875" y2="248.70413556545532" fill="rgb(0, 0, 0)" stroke="rgb(189, 189, 189)" stroke-width="1px" opacity="0.25"/><line x1="0" y1="209.94145354455415" x2="847.6875" y2="209.94145354455415" fill="rgb(0, 0, 0)" stroke="rgb(189, 189, 189)" stroke-width="1px" opacity="0.25"/><line x1="0" y1="171.17877152365324" x2="847.6875" y2="171.17877152365324" fill="rgb(0, 0, 0)" stroke="rgb(189, 189, 189)" stroke-width="1px" opacity="0.25"/><line x1="0" y1="132.41608950275207" x2="847.6875" y2="132.41608950275207" fill="rgb(0, 0, 0)" stroke="rgb(189, 189, 189)" stroke-width="1px" opacity="0.25"/><line x1="0" y1="93.65340748185089" x2="847.6875" y2="93.65340748185089" fill="rgb(0, 0, 0)" stroke="rgb(189, 189, 189)" stroke-width="1px" opacity="0.25"/><line x1="0" y1="54.89072546094976" x2="847.6875" y2="54.89072546094976" fill="rgb(0, 0, 0)" stroke="rgb(189, 189, 189)" stroke-width="1px" opacity="0.25"/><line x1="0" y1="16.12804344004859" x2="847.6875" y2="16.12804344004859" fill="rgb(0, 0, 0)" stroke="rgb(189, 189, 189)" stroke-width="1px" opacity="0.25"/></g></g></g><g><g><line x1="0" y1="1295.2965501297858" x2="847.6875" y2="1295.2965501297858" fill="rgb(0, 0, 0)" stroke="rgb(153, 153, 153)" stroke-width="1.5px"/></g></g><g><g><line x1="21.756703787800724" y1="0" x2="21.756703787800724" y2="377" fill="rgb(0, 0, 0)" stroke="rgb(153, 153, 153)" stroke-width="1.5px"/></g></g><g><g><g><g><g><path stroke="rgb(238, 51, 119)" stroke-width="2px" d="M22.073411904491266,164.7183630274345L22.46552671563194,164.71836302741832L23.01599558511788,272.50021926323154L23.483517090708684,124.19907042977846L23.52122043793375,197.0529572721751L23.81530654628925,272.6080722740487L24.094311315754734,349.7182967236561L24.154636671314833,346.77190531315904L25.33098110473685,308.4450891865253L25.798502610327652,294.0076209101626L26.122751396463208,267.4387643657672L26.175536082578297,272.3649964677443L26.53748821593892,276.5333383628595L26.63551691872409,280.10619509546814L27.140741771539957,272.3596816375885L27.84956469937117,285.9222409513044L29.402942605043833,288.3122812206421L29.795057416184505,317.58481702959926L31.808416158002963,309.46656227440826L31.838578835783014,334.77033504061313L32.20053096914363,357.6641482975215L32.253315655258724,348.80144439270543L32.58510511083929,340.70944009284324L34.50797581931759,319.67710495126147L34.83222460545315,319.94235952259334L34.85484661378818,301.31730646466195L35.910540336089994,308.3120548619564L36.21216711389051,303.11414126453377L37.10950677784705,320.86557301199963L37.56194694454783,326.5091502781441L38.33863589738416,347.65441485469125L38.81369807241997,346.97445145498966L39.15302819744555,341.3626721107014L39.771363091936614,350.56852440826833L40.12577455585222,359.24827876942174L40.495267358657856,358.3149406366503L40.50280802810286,361.87629681101805L40.59329606144302,365.2501923606323L40.849678822573466,355.78948003878355L42.00340124766044,346.80186180972356L42.418138067136155,350.3086264325498L44.66525756175,357.57328072300106L46.11306609519249,360.66446639962885L46.23371680631269,356.114681043012L46.678616303568454,362.77325064979476L49.03884583985751,358.37007573675874L49.05392717874753,354.1543023212211L49.43096065099817,346.6696807771388L49.96634818159409,349.6183531174436L50.51681705108004,359.06912898998L50.56960173719513,355.16223362362416L51.376453367811514,354.59152133903683L51.58759211227188,354.0423501311262L52.19084566787291,347.37165318182736L53.39735277907498,343.9601808486888L54.30977378192154,352.5273581541338L54.93564934585761,346.2256773528174L55.6293909347988,340.14135374554195L55.75758231536402,342.71631211512766L57.01687411268119,339.66127383781134L57.861429090522634,339.4344067372862L59.24137159896,325.7883262628906L60.25936197403674,323.151557759993L60.47050071849711,320.5972151186176L62.06158197139483,320.68666898028573L62.16715134362501,318.24585225909595L63.599878538177464,320.8600550874798L64.58016556602915,316.03039706732835L64.91195502160971,318.6045505077772L65.55291192443582,321.105127923768L65.97518941335655,325.89061688390075L66.02797409947163,330.54312048971997L66.2994381994921,332.7749904970869L66.92531376342818,325.8935371637982L68.50885434688088,325.89818450476173L68.65212706633613,332.5202990749292L69.17997392748704,325.90058201514915L71.32906471931571,323.7535374900909L71.54774413322109,330.16184385268605L72.27164839994234,332.210434810958L72.36213643328249,327.98397330130473L73.44045216391935,334.1132682414439L74.2850071417608,334.0143341429481L75.71019366686824,325.90304884783404L77.42192563088618,323.92597222838657L78.01009784759718,327.87193461090186L78.03271985593221,327.85223235888776L78.39467198929285,327.83297816476085L80.48343742556142,320.23104261752655L80.55884412001154,314.67378741716504L80.822767550587,309.23875129046115L82.01419332289905,311.26863949422034L82.57974353127501,307.8013873696126L83.43937984800648,311.6054232245101L83.74854729525201,311.7667117416045L84.81932235644385,303.10656288706014L84.92489172867404,299.8639873453819L85.8373127315206,301.8756110834703L85.91271942597072,302.13386486900777L86.61400168435692,298.9941369486637L88.70276712062551,300.95794261579215L89.07980059287615,302.88320985359104L89.13258527899126,304.771061141236L89.569944106802,308.25694663736783L91.58330284862045,303.57836670926116L93.15176209318314,308.61880871767187L93.80025966545425,305.6104912350259L93.89828836823942,304.2348723986134L94.88611606553611,304.4477542182104L95.97951313506299,300.0074045765355L96.46211597954381,295.647141237467L99.24462300475359,295.93563815507093L99.29740769086867,294.7081594133066L100.17212534649018,296.49893108118715L100.7753789020912,296.7724787610167L101.09962768822676,298.5152638448405L101.74058459105287,297.30406914205184L102.8716850078048,294.66302721231426L103.04512040504011,296.3831712532655L103.96508207733167,296.6469879808546L103.98770408566672,296.90643890835986L104.44768492181251,301.3784256347691L104.5080102773726,300.1981926923523L104.85488107184321,303.18986826131226L105.47321596633427,304.759734818337L107.86360818040336,298.1227768440255L108.26326366098904,297.0047592938495L108.71570382768981,294.56057962737435L108.97208658882026,290.8204551925163L109.86942625277679,285.81367265316317L110.42743579170775,283.5130604233832L112.01097637516047,277.3308848453883L112.04867972238554,272.53811747651963L113.48140691693798,274.25330859066946L114.43153126700963,274.6646978189194L117.30452632555954,271.26130404471417L118.85790423123223,271.6904428710625L119.32542573682301,272.11335263094196L120.04178933409924,275.0181607883542L120.24538740911458,271.7028327560796L120.60733954247522,269.6621568321269L122.816755689864,267.650270134123L123.90261208994586,265.66656869096005L124.28718623164153,267.3216812606163L124.46062162887682,268.9539254913979L125.89334882342928,271.752179635569L126.45135836236024,272.1504944215466L127.92932957358275,272.5434169423986L128.9925639653296,269.4324953001915L129.54303283481553,267.5221060449127L129.8748222903961,271.39638597388193L130.6967552599025,274.07474834484674L132.13702312389998,272.16636920531147L132.36324320725038,272.5449783827359L132.50651592670562,274.0430212883185L133.2002575156468,273.2864889710832L133.4264775989972,274.7617893606416L133.90908044347802,278.42756431371396L134.05235316293326,276.55622649908554L137.30992236317883,277.9838775921173L138.43348211048578,275.0513721176942L138.4485634493758,269.9963076924499L138.6898648716162,272.5166447468742L140.44684085230423,269.6697046142385L140.62781691898454,270.0413774592668L143.2821325636291,264.07578876383815L144.2850415998158,263.4300701600211L144.82796979985676,261.74814386766167L147.66326151118162,260.08616858908374L148.50781648902304,259.47642706647883L148.86976862238367,259.9009284743085L149.1864767390742,256.2340042222333L150.44576853639137,254.64199118240404L150.67952928918677,255.09003966732982L152.1499598309643,254.52738458957987L152.3384765670896,253.97113955152847L152.50437129487992,252.42602141658935L154.04266786166255,250.89830924929143L154.14823723389273,249.38771132791416L154.3669166477981,250.83398400549274L154.4272420033582,249.33901559742506L157.9788973119593,250.77107627963105L160.8895957177343,249.29138712946275L164.71271512635585,249.7489686373603L165.90414089866786,251.15743171084142L166.30379637925358,253.50187104250216L167.0729446626449,253.92809141022673L169.03351871834823,253.40780651917052L169.85545168785464,251.01818664433148L169.96102106008485,250.5196880023237L170.5416526073508,247.2408906643363L171.40882959352732,247.69284191301665L172.10257118246852,244.46097608683453L172.53238934083424,244.0089769314435L172.83401611863476,244.47285594653732L172.96974816864497,244.02496903724048L173.0376141936501,240.87309261437687L173.6107050714711,241.34805636467706L174.41001603264246,240.92358967880733L174.47034138820257,241.39398041123607L175.0057289187985,241.85967511027226L175.88798724386498,238.79020654896698L176.63451351892127,235.75108140892257L176.6420541883663,233.61667951632774L176.80794891615656,233.24513230505866L176.92859962727678,231.14286397819464L178.4442741857244,229.9243768096042L178.46689619405942,232.15629647904086L178.83638899686505,233.5108193970572L179.01736506354536,230.59090751277432L180.71401568867327,228.54744138881404L181.1966185331541,224.83317940596135L181.68676204707995,226.20298889964755L181.86019744431525,226.72196534719504L182.51623568603134,225.5671202762729L183.0591638860723,222.7609596737148L184.054532252814,221.63595069512533L186.5052498224432,221.3454989154117L187.69667559475525,223.52019210643516L189.49889559211334,224.04005620627285L189.85330705602894,223.74101347815503L190.13985249493942,226.688301853834L190.3509912393998,223.9554349730888L191.21062755613127,222.85595079545672L193.98559391189605,221.76628049896883L196.23271340650987,221.4843843347523L196.30812010096,225.97472359651425L196.63990955654057,224.09069534640417L196.83596696211092,224.58951110021806L197.1752970871365,225.86969191265214L197.3487324843718,222.4425616104983L197.91428269274775,226.06238501199078L198.4119668761186,224.21392542295914L199.26406252340507,225.47644504593615L200.24434955125676,222.87389567288017L200.3272969151519,220.29350287841942L200.47811030405217,221.5604110851186L202.26524896252022,219.00544103272003L203.32848335426704,215.7125396956228L203.84124887652794,214.71704233374672L204.85923925160466,211.46834546318038L204.8743205904947,210.49986365926492L205.16086602940518,208.7910445534426L205.33430142664048,208.58757709304436L207.41552619346405,206.899876471944L208.15451179907532,208.18710962036556L208.21483715463543,210.20151001035012L209.52691363806767,208.5244791185757L209.7757557297531,210.52308723294482L210.33376526868406,210.31610385024354L210.62785137703955,207.2016538098035L211.27634894931066,204.11205087150338L212.18122928271222,204.6581190642346L212.77694216886823,204.4801397813985L213.221841666124,205.73805603096656L215.44633915240286,202.69737165483124L216.39646350247446,203.95455766263711L216.66038693304992,203.7820942788877L217.21839647198084,203.6109700164186L218.31179354150774,205.55658611734614L218.50031027763308,206.7844362704152L218.9829131221139,206.60200814297667L219.08848249434405,204.32668453491965L220.0989321999758,204.15605307455644L220.8529991444771,201.90624310782596L221.35822399729298,202.4383056320664L223.8240229058122,202.9663592625217L223.83156357525718,202.8037366203329L224.0653243280526,201.95784334094282L226.42555386434162,202.4828085063605L226.5160418976818,202.3237915438712L226.54620457546187,202.16595095145394L226.55374524490685,204.7122632842022L227.42092223108338,206.566271610238L229.16281687288134,205.72081720480995L229.90180247849258,205.55088832197208L230.0299938590578,203.38040766373368L230.16572590906804,202.5559995722454L231.57583109528548,204.38998455534244L232.26203201478165,204.22761031076092L232.5184147759121,203.40737897301412L232.65414682592234,202.59300300760674L235.3160031400119,200.47444696167588L236.1982614650784,203.59484305692152L236.2962901678636,204.08915233049095L236.99003175680477,203.93093814691574L237.20871117071013,202.47965321095543L237.50279727906562,203.61911835926355L240.2098976098253,204.75064364181736L240.40595501539565,203.95037547449925L240.71512246264118,203.15564582950924L240.90363919876646,203.64144982091656L241.95179225162326,204.12391427348007L242.41931375721407,204.60307326549466L243.9877730017768,204.44701654688208L244.10842371289695,204.29202188289105L244.6664332518279,200.99664921268547L245.04346672407857,200.2294561119143L246.0689977686003,198.84275576434348L246.68733266309135,200.57982205853912L248.01449048541363,201.06302746494853L248.21054789098395,200.30430079446225L248.67052872712975,201.40342985772938L249.2888636216208,200.0318165216093L249.80916981332672,198.66926637170621L250.11833726057225,198.54053090899782L250.44258604670782,197.80192523666898L251.4379544134495,196.45913211373005L251.52090177734465,194.51776032919508L252.5916768385365,194.4060126431251L253.3004997663677,193.08697797937475L253.4060691385979,191.77646655448797L258.5789683778767,193.47797494106723L258.85797314734225,193.37129813344544L260.7657625169305,190.27796478357487L261.61031749477195,190.18366832907859L262.1004610086978,189.4957101002533L262.1532456948129,189.99746159600093L262.5755231837336,190.49604090701177L262.6433892087387,190.4019505324341L263.08828870599444,188.5445437089383L263.18631740877964,188.4580347200169L264.3702025116467,188.3720660008965L264.6190446033321,189.45333836525805L266.33831723679504,187.61873240054746L267.1451688674114,185.79548037439L268.0123458535879,183.4046557395974L268.38183865639354,182.18319964193753L268.8041161453143,181.54508283321454L269.799484512056,180.91086814825368L269.8598098676161,180.28052021809415L270.8551782343578,179.08254997395548L271.7449772288693,179.60186303505796L271.9485753038847,181.25517664823926L271.9636566427747,181.1971082833864L272.6423168928259,180.57366921275195L273.17016375397674,179.95396475115604L273.4265465151072,178.21215562688704L273.6376852595676,178.72675086405076L276.08840282919675,177.55792859419785L276.15626885420187,175.2785441160462L276.246756887542,173.0126180349788L276.3900296069973,171.872048698634L276.51822098756253,170.18352226341145L276.9254171375932,169.05818678517153L277.01590517093337,169.5953226370693L277.2044219070587,169.57869573376237L277.4834266765242,169.56216534244575L278.2676562988055,171.7377185249275L278.4109290182608,170.07389271551511L279.2026993099871,170.60119627833637L280.869187257335,170.58137833132983L281.02754131568025,172.190101121274L281.44227813515596,170.54045700366285L282.0983163768721,169.98072213958235L282.65632591580305,172.11914274741437L284.0438090936854,172.63224107407046L288.19117728844253,171.5329754244667L288.3495313467878,172.5808845797447L288.4098567023479,170.95285634159302L288.5229667440231,170.9322904253659L289.32227770519444,170.38027910548342L290.0009379552456,168.24030756578998L291.49399050535817,168.7579055206705L291.5467751914733,167.6888315154647L292.0821627220692,167.1524037651721L292.8663923443506,167.1444834863954L292.9945837249158,166.61223698714758L293.49980857773164,165.03651983777817L295.07580849173934,166.07954156979642L295.2944879056447,167.63773895643538L297.96388488917927,169.18746323382996L298.19010497252964,169.6916704647018L298.33337769198494,169.15832562330337L299.00449727259104,167.07903447409856L299.3966120837317,165.52607580426582L299.63037283652716,165.009487336229L300.0601909948929,165.00856283588755L302.03584638948627,163.98407363160973L302.28468848117166,161.4330090376214L304.19247785075993,162.4625256362854L304.4488606118904,161.96114755999486L306.5225447092689,162.98458892978212L307.3670996871104,160.45849616169482L309.7499512317345,158.45091340189376L310.1646880512102,156.4538605857978L311.61249658465266,155.97651643462257L311.7331472957729,156.50571365722473L311.816094659668,156.5311873231217L313.1432524819903,156.5565287143071L313.58061130980104,156.58173884580367L313.7314246987013,156.60681872227707L314.6363050321029,156.63176933816777L315.69953942384967,156.65659167782042L315.88051549053,158.16552284342703L316.90604653505176,157.69182735275493L317.629950801773,157.71326282014746L318.07485029902875,158.22629402557826L318.1577976629239,160.20882520663358L321.136362093704,161.20190547429522L321.34750083816436,159.74641395180979L321.73207497986004,158.78598274488047L322.4635199160263,157.34364251653386L322.69728066882163,156.39430000852977L322.7349840160467,154.9649211766014L323.53429497721817,153.54267945839433L325.61551974404165,155.02465846526684L327.1538163108243,153.12599201665202L328.26229471924125,153.6414545651091L328.3829454303614,152.71438599128658L328.4131081081415,152.74999031810586L328.6619501998269,150.87298193851925L328.8127635887272,149.48236537792195L329.36323245821313,148.57480488993883L331.2257778111313,148.62231433477675L331.88935672229246,146.29761600831227L332.76407437791397,147.77205105107583L332.9676724529293,147.82163422663996L333.4955193140802,146.45600684902203L334.0082848363411,145.096977185688L334.6266197308321,145.6239110014946L334.98857186419275,145.67935295324284L335.10922257531297,145.7345288948678L337.49207411993706,144.855080179086L338.5628491811289,143.5135341723523L339.47527018397545,144.5054779597272L340.30474382292687,144.56361511943282L341.02110742020307,145.0851517336464L341.85812172859954,144.6786008916369L341.9938537786098,143.81202223411208L343.5773943620625,144.79388668983893L345.7340258233362,146.23137167441234L345.8622172039014,147.2027276169341L346.1563033122569,145.41829142081653L348.1017960290703,145.01528553975217L349.91155669587334,145.9847418485392L350.1754801264488,146.0376363121498L350.5826762764795,147.00068031634962L350.82397769871994,147.50489573456915L351.3669058987608,148.9138802966806L351.5705039737762,149.41091182240473L351.60066665155625,150.3575735189778L352.07572882659207,148.59326608092556L353.3953459794693,149.53881700182873L353.49337468225445,148.6820758660439L354.09662823785555,148.27793279039716L354.1267909156356,147.42773113804245L354.39825501565605,146.58138793739667L355.05429325737214,145.73887740255626L355.1070779434873,144.90017397681487L355.4388673990678,146.28898757541586L355.8385228796535,146.78361537596663L357.95745099370214,145.50324882909857L358.40989116040294,145.9983058144637L359.59377626326994,147.37445678977113L359.69934563550015,148.30357954278352L360.81536471336204,146.58780014624992L361.8710584356638,147.95523079773224L363.4244363413365,148.43936934351538L363.4923023663416,147.16991084297575L363.8919578469273,146.34317223604296L364.90994822200406,147.2655609219882L365.1814123220245,147.31263483626637L366.04858930820103,146.48971845340472L367.41345047774837,146.10456155989385L368.87634035008085,145.2876621408699L369.30615850844663,144.90702095828547L369.9018713946026,143.66409301214765L370.1733354946231,145.01405778788822L371.02543114190956,145.4971125868358L371.1460818530298,145.54826428548913L371.74179473918576,145.1700934354534L372.3902923114569,145.6503349728401L377.6612202535209,143.99008672757617L377.9854690396565,144.47186672379988L378.43790920635723,144.0990228336397L378.5887225952575,143.72777160262453L379.463440250879,141.65854934790946L379.8555550620197,140.44652406019182L380.3079952287205,140.51016866942715L380.57945932874094,138.45943339359874L380.97911480932663,138.5280659152204L381.10730618989186,137.3320319679276L381.212875562122,138.66572594692926L381.39385162880234,139.15359876417025L381.4843396621425,139.6394247159363L381.77842577049796,138.02938131715257L381.88399514272817,137.262268407534L382.8190381539098,139.002982145629L383.3091816678356,138.23578533766846L383.4826170650709,137.05565609429L384.28192802624227,137.12681452680928L385.0736983179686,137.61249099504437L385.42056911243924,137.2678353153151L387.6450665987181,135.68405176057027L390.0731621600122,134.51965635479692L391.113774543424,133.77227255687728L393.3005686824777,133.43954318128894L393.7077648325084,133.93008530568272L393.89628156863375,134.00830337181483L394.8464059187054,132.44744112706107L395.45720014375144,134.16542120654162L395.91718097989724,133.83424871779079L396.0604536993525,132.6887935896189L398.83542005511725,133.5839270380313L399.21245352736787,133.66230190717826L399.91373578575406,134.95823164782107L400.0343864968743,135.84360725253202L400.2606065802247,137.53489432988056L400.81107544971064,136.3905397072365L401.6707117664421,137.26834896612115L403.5332571193603,138.14265506587373L403.54833845825027,139.818103768059L404.96598431391277,138.27318105814146L406.1724914251148,136.73438943079125L407.3412951890918,137.20430830330932L408.04257744747804,136.4725757125438L408.45731426695374,136.54241434466758L408.9097544336545,135.81446881065892L411.98634756721975,135.4875550859709L412.3482997005804,135.16192443256392L412.4086250561405,134.44056282641196L413.5246441340024,132.92916453721548L413.87905559791807,133.4029305669881L414.37673978128885,132.68901242035395L415.6586535869411,131.97787079671426L416.07339040641676,132.05776809673213L416.53337124256257,132.5309278853237L416.789754003693,133.7882724382208L417.7172563454296,134.64831734312077L417.8529883954398,134.32939330713245L419.0142514899718,133.62036982924042L419.91913182337333,133.30483963763217L420.7033614456547,133.38073579630046L420.95220353734015,133.06667653648233L421.434806381821,134.31027751323595L421.5102130762711,135.54913656928528L422.10592596242714,134.84316986803685L422.2190360041023,133.36492814331086L424.4359928209362,132.27923065676725L424.49631817649623,131.97043959725448L424.941217673752,132.0486765188863L425.04678704598217,131.35596722383755L426.735897001665,130.66586686815648L426.7886816877801,130.74688322550261L426.8188443655602,130.44386353656205L426.84900704334024,130.90838834085642L427.9122414350871,130.98849658559917L428.1610835267725,132.59692951474028L428.24403089066766,133.43609838667757L429.4957820185398,133.50991461674246L429.60889206021494,132.44166359340156L429.76724611856025,132.51761992460845L429.8803561602354,131.83415810045358L430.770155154747,131.53227841735705L432.4668057798749,131.61005932873732L433.665772221632,129.7973596800442L433.8316669494222,129.8789875904662L434.1634564050028,128.82923072872225L434.3745951494632,127.78332003992476L435.0381740606243,126.36520938899912L436.018461088476,127.58096329809709L436.3577912135015,127.66719650602963L437.9488724663993,125.880443139333L438.74818342757067,125.97038726849051L438.7708054359057,125.68645534498314L438.9668628414761,126.1496713660774L439.20062359427146,126.23864112319312L440.5504034249288,124.83894704445129L440.5881067721538,123.81589719853729L440.6484321277139,122.42540854014496L441.870020577806,121.41055059473801L442.2696760583917,119.6590145546251L443.77780994739425,119.39246950331369L444.7203936280209,118.01926278179221L446.32655621980865,117.01968539189645L446.57539831149404,116.0236679339507L446.89210642818466,115.39897908791356L447.2917619087703,116.24578032366269L447.8573121171463,117.08958049529933L447.96288148937646,117.56401020491998L448.01566617549156,117.30492252127337L448.61891973109255,117.04674857476235L449.96869956174993,116.42448648272438L450.2175416534354,116.53348793695042L451.56732148409264,117.00618707462945L453.82952231759646,115.6591084316562L453.87476633426655,115.40625181236051L455.22454616492394,114.79156153025585L457.3057709317475,113.45448345904404L461.3400290848294,113.56932434536812L461.7246032265251,114.04513368100335L462.4334261543563,114.51929170224199L463.3081438099778,115.35228285624939L463.7228806294535,115.10229451543118L463.9491007128039,114.1339887275119L464.53727292951487,113.52817222915111L464.7408710045302,115.435419540539L464.8690623850955,114.82819443140902L465.0575791212207,113.50737793839282L466.76177041579365,114.69291099979414L466.8824211269139,114.80347674180835L466.92766514358397,115.98328123544715L468.6469377770469,116.09073506536427L469.00134924096255,116.1978229496129L469.9137702438091,116.65979984489465L471.36157877725157,118.18469108483154L471.48222948837184,117.5779928743742L471.7084495717222,118.38927067020967L472.21367442453806,118.13712882870608L472.3192437967682,118.94525608461308L474.84536806084753,119.75066080533027L475.5466503192338,120.55335632474824L475.5918943359039,120.64957964875013L475.7577890636941,119.69105873492792L476.4364493137453,118.73574731141645L477.77868847495756,117.78362976101761L477.9898272194179,116.8346905675971L478.69110947780416,116.23874472625772L479.2566596861801,114.94593601467157L482.65750160588095,115.05349156566217L483.2833771698171,114.4634655894273L483.8187647004129,114.92002111235638L484.5502096365792,114.33164573847286L484.6406976699194,115.48224450426969L485.040353150505,116.62904842330808L485.7642574172263,117.77207566749311L486.8651951561982,117.18028484646297L490.3263624314591,117.62788640070207L490.9296159870602,116.00148693930977L493.16919481222897,116.10555870623459L493.40295556502434,116.20929028339037L493.46328092058445,117.68967304328125L495.8687544735436,116.41436363323061L496.9998548902956,115.83014586050868L498.4778261015182,115.2478265332458L499.5184384849299,115.35279447580456L500.04628534608077,115.1151073294283L500.05382601552583,114.87818916701595L500.6872422489069,115.32513748721392L501.8786680212189,115.7706440240217L502.7081416601703,115.19234215859929L503.3415578935515,115.6371401485925L504.269060235288,114.72036319503235L505.0985338742395,114.82550996767833L505.6640840826155,115.26960684978269L506.0561988937562,115.71228356112513L508.21283035502984,114.79937865078857L508.2882370494799,114.56572726959511L508.30331838837,113.99501806459948L509.5399881773521,114.10099066415532L511.0632034052447,113.86956021808243L511.817270349746,114.31226448241857L511.90021771364115,114.08089584030633L512.3074138636719,114.18623077484142L513.7476817276694,115.29806137639864L513.9663611415747,115.06539466243235L514.1020931915849,115.50323612188626L514.727968755521,116.6087586097364L515.293518963897,116.37412770454957L515.5272797166923,117.47548789851118L515.874150511163,116.23919340931113L516.4321600500939,117.00538472375169L516.7488681667845,116.10543436736087L517.2465523501553,115.54068680310444L518.7396049002679,114.31360457059856L519.0487723475135,113.42203287335485L519.8103799614597,114.52131000508881L521.688006653268,114.95518193320277L523.4676046422909,114.72640700659731L524.3197002895774,115.4892572409244L525.3753940118793,116.90967475654524L526.5894417925263,116.67762681710698L526.8005805369867,117.43411717313957L527.1399106620122,117.20148295891423L530.2994511594727,117.95534002745222L530.5558339206032,117.39387487132836L530.8499200289586,116.8341287011628L536.5054221127183,115.620940394569L536.5129627821633,115.0659368474969L536.6411541627286,113.85881586371167L537.3725990988949,113.63508168303794L537.7571732405904,112.75955402257868L538.3830488045265,112.53849412018776L538.9712210212375,113.29482435678986L541.5275079630969,112.42264991684551L541.9724074603527,111.22819970103981L543.35234996879,111.33569757661354L543.3598906382351,111.11861337999088L543.4579193410203,111.22611451451738L544.5211537327671,109.71526300713136L544.8981872050177,109.8253574225866L545.4939000911737,110.25807936564178L545.652254149519,110.04423390029508L547.0548186662915,110.1533423238495L547.2584167413067,109.94013126944975L547.4846368246572,108.76253552838985L548.0803497108132,107.9098045658707L548.9626080358797,106.73857426257027L553.0571915445217,105.57082542099168L553.0873542223018,104.72694792144782L553.3211149750971,104.84584146966264L553.5925790751176,104.96438300042914L553.9771532168133,104.76311113040224L554.5502440946343,105.20073493155523L556.5032774808926,104.9993891862167L557.1140717059386,105.11716576355914L559.1952964727622,105.8710354099948L559.5120045894528,105.98686783654779L560.3716409061842,106.41996411238928L561.3217652562558,105.89990005556625L561.5178226618262,104.74737506606111L562.3925403174477,104.54827781924601L563.5538034119797,103.08423166825823L563.9760809009005,102.57269150144427L564.360655042596,101.11530884547147L564.5265497703864,101.55501900381877L564.7753918620717,102.62380322450034L564.9639085981971,102.42998432108983L566.1704157093992,102.55130411277288L566.7585879261102,101.72943498279623L566.9169419844554,100.59595774306298L566.9244826539006,99.77943732554616L566.9395639927905,98.96526985458576L567.7087122761818,97.84034891864434L567.731334284517,97.03146452620157L568.0329610623173,95.91239190427584L568.8925973790489,95.73318272498763L570.136807837476,95.55448671852677L571.267908254228,96.93448689087609L571.8334584626039,96.75380716779617L572.2934392987497,97.19576102825063L573.5753531044019,96.3933706095365L574.6235061572586,96.21423207517019L577.8659940186142,96.9661974791522L578.1751614658598,97.4061154025242L578.2128648130848,97.8447861319794L578.5672762770005,98.90090418417192L579.0197164437012,98.40872628280384L579.1931518409365,97.91793856060626L579.8491900826526,98.04553238443559L581.1763479049749,98.1727667017091L581.22913259109,97.06788981314202L586.2889217886936,97.81207442700453L586.5603858887142,97.32464518433983L588.3626058860722,98.066997902395L588.5963666388676,97.8867899591742L590.8434861334815,97.40053469909925L590.9792181834918,96.60936150300866L591.5824717390927,95.82039578539943L592.0499932446836,96.56227164130769L592.5627587669444,96.6911709349779L594.3046534087424,96.51452789111171L594.3197347476325,96.33837532052726L595.269859097704,96.46735354949716L595.5941078838396,96.29160197226808L596.4914475477962,96.11633663105489L598.0976101395839,96.24539090893705L598.4821842812795,94.85625062110735L599.5680406813615,94.38084241375878L599.9224521452771,93.90674318166536L600.1637535675175,94.34225644515661L600.8047104703436,94.7765734380068L601.679428125965,94.60521650903947L601.7322128120802,94.43432914564237L601.8151601759753,93.66047841756519L602.9387199232822,94.39601284539148L603.8813036039088,93.92476698724525L604.8314279539804,94.35760446879937L605.8569589985023,95.39060911475939L606.3848058596532,95.81997448045081L607.2369015069396,96.84848524886077L608.4358679486967,95.77491300645853L609.1823942237529,95.30353561353976L610.6302027571954,95.432206728565L610.946910873886,94.66313804670659L611.497379743372,93.89614726921432L611.9271979017376,93.42984823653634L615.7729393186942,93.85991208148148L616.2857048409551,93.9907020440304L616.8663363882212,92.92968370862174L616.9719057604512,91.87151547702786L617.2659918688067,90.81618640822754L617.5072932910472,90.3579104120584L618.3443075994436,89.90086117857118L619.7996568023311,90.0382631854048L620.319962994037,90.47166479404464L620.6215897718375,90.9039102199243L621.9713696024949,89.55976705220347L622.1448049997301,88.51482824413797L622.7178958775512,88.35881223331594L623.5926135331727,87.31779963749095L623.781130269298,86.57444145182019L624.7689579665947,85.24375340858958L624.8217426527098,84.21099389518791L624.995178049945,83.76929436313702L625.2440201416305,84.79837864179453L625.2741828194106,86.11843147766305L625.7643263333364,85.67435098918618L626.2544698472622,86.69745457179219L627.6570343640346,87.71786882067008L627.9511204723901,87.56469989102456L628.0717711835104,86.5344676299926L629.1576275835922,86.67593987722977L629.3536849891625,86.52502680611073L629.632689758628,86.6662875549934L631.2388523504158,86.51563527295275L631.5329384587712,87.5306140427887L631.5480197976613,87.37864614055019L632.1437326838172,86.93623148749825L632.5207661560679,85.91374762982946L632.6640388755233,86.34580616613015L633.4331871589145,85.61616024102855L635.423923892398,86.33798004244932L636.2760195396844,87.34761649520631L636.5399429702599,86.90736763072847L639.7296461455003,86.46825561613507L640.6948518344619,86.60827118695124L641.9767656401142,86.45915636397454L643.3416268096615,86.59896761123143L643.7639042985821,86.45010389122716L644.0579904069377,86.87780093650018L644.9779520792293,86.72867351413723L645.2871195264748,86.29228975105787L645.6415309903905,85.28219475487239L645.8979137515208,84.56187302299544L646.3578945876666,83.84339121025145L646.4936266376769,83.70023092058781L647.0591768460529,83.2709135375821L648.1978179322498,82.27008825058459L648.5899327433905,81.27180836856829L649.6456264656923,80.5619237670529L651.4780091408304,80.71075782330706L653.3782578409738,81.43005386990747L654.5923056216208,81.00672484902351L654.9542577549814,81.15443204027413L656.4171476273139,80.73223605521481L656.6584490495544,81.16474916682282L656.7187744051145,80.74317809526829L657.0958078773651,80.32266894859346L658.1439609302219,80.75491677818628L658.2570709718971,80.05133956762599L658.754755155268,79.91646933087443L659.7048795053396,79.2154248682438L660.3458364081656,79.3652659305235L660.7530325581964,78.38341117679359L661.3412047749074,78.81710087576829L662.4119798360991,78.4024889782637L662.8644200028,77.98891161190662L662.9850707139202,78.98628596562064L663.1057214250404,78.00875887016868L663.3847261945059,78.44148502471157L663.9879797501069,78.31042546820954L664.5459892890378,77.89854470123053L665.1266208363038,77.2067468122726L666.5442666919663,76.51666253583876L666.7780274447616,75.82828585687601L667.0268695364471,75.1416107883572L667.509472380928,75.01685371325226L667.8035584892834,75.45221585577677L667.8865058531786,75.88650514486997L668.3615680282144,75.7607329805288L670.1411660172375,75.6352701171736L670.3598454311428,76.34738134952613L670.8650702839586,76.77885933305089L673.6626586480585,76.93059650075355L674.8314624120354,77.63892402583608L675.095385842611,78.06723899931055L675.148170528726,78.77258555798046L676.1359982260228,79.47620987532603L676.2340269288079,80.73347349784841L676.5808977232784,80.87776059918116L676.7769551288488,81.8535338150366L677.1841512788795,81.99569259706139L677.8552708594857,81.5837411170387L680.7584285958156,80.89610469568056L681.1882467541815,80.4866229775711L681.9875577153528,79.80184217511537L682.4777012292785,80.49919183289191L682.8170313543043,80.91895685589488L683.9556724405012,81.06200459268192L684.0461604738413,81.20470724887127L685.5542943628438,80.52112218178857L686.0368972073246,80.11430355674187L686.27065796012,79.70846338767932L686.3686866629052,79.02886397718282L688.1558253213733,79.17452179084343L688.6610501741892,78.77113029378648L690.4180261548772,79.46533896273358L691.1117677438184,79.33598404099594L691.481260546624,79.7544919295219L692.2881121772405,79.35124049714041L694.0752508357084,78.40215752406996L694.8519397885449,77.7285447276331L695.4928966913709,77.0565361364738L695.6135474024911,76.3861263619386L698.494083130486,75.98995247526075L698.6222745110513,75.32226434032377L699.4592888194477,75.7452320585149L699.602561538903,74.80679019121301L700.213355763949,74.6862560211479L700.6356332528698,74.02258789770427L700.6808772695398,73.90353653850165L702.2040924974324,74.87012428356256L702.7243986891383,74.74981190884716L702.8224273919235,74.9007543026553L703.8102550892202,74.23897845365681L707.3543697283762,74.11996781968134L708.5156328229082,73.18997106918033L708.6664462118085,72.53239688383543L710.2198241174812,73.49671172802509L710.9588097230925,72.56963208867381L711.313221187008,71.91441778930586L711.5319006009134,72.06928049130076L712.6630010176654,71.95444641655442L712.8138144065656,71.3015699992993L712.8364364149006,71.18816749097087L713.3039579204915,71.3438263554808L713.4773933177268,70.96188559073993L713.5000153260618,71.38615472139661L715.0156898845094,71.00464930196071L715.5661587539953,71.42828669383931L716.2071156568214,71.04721478713215L716.4031730623918,71.47022355270865L717.3532974124635,71.3571400108232L717.8283595874992,71.51169918574065L720.3695651904685,71.66590140947693L720.9954407544046,71.55271643416373L721.4403402516605,70.90607862869571L721.4554215905505,71.0609789963764L721.6891823433458,70.68250400805954L722.2245698739417,70.8375716852718L723.9890865240748,70.99228323969952L724.7205314602411,71.14663981955616L726.5906174826042,70.7690040131646L728.1138327104968,70.39223305786825L729.8331053439598,69.7508477231666L731.0396124551619,70.17215143439309L733.445086008121,69.53195163451294L733.7165501081414,69.42314316043533L733.7768754637016,69.04978705499609L734.621430441543,68.1480281916936L734.9079758804535,69.36398263934865L736.4915164639062,70.57717280672951L737.2983680945226,71.52348633368851L738.3465211473793,70.61997834737748L738.5501192223948,70.24609104267365L739.5077842419114,69.87305060804829L740.5408559558782,70.55466496407598L740.9631334447988,70.18159235403517L741.2044348670393,70.59872444782881L741.7398223976353,70.75195998295627L742.0188271671007,69.59089907094717L744.6052767867401,69.22033018487696L745.2763963673464,69.3755177498058L745.4498317645816,69.00576182587966L745.9022719312824,68.37470301700222L745.9625972868425,67.48309012149919L746.5960135202236,67.11709202061954L747.9307120119909,68.06013955632321L748.5339655675918,68.21662707557908L749.167381800973,68.63408579402409L749.4690085787735,67.74481227693227L749.6952286621239,67.37952186552555L750.1853721760497,67.27588436860478L750.4266735982901,66.39044428241459L753.3373720040651,65.50697573323812L754.3779843874769,65.4065474711699L754.9058312486278,65.3063424277807L755.4336781097787,65.46640019193553L755.7202235486892,64.58657623057358L756.3385584431803,63.96842619623644L756.6703478987607,63.87077631624985L757.1227880654616,63.51393447915706L757.6958789432827,62.89863068803144L758.1256971016483,64.35743939182088L758.7968166822545,64.51833989469887L759.1813908239501,65.19644881102205L759.2040128322851,65.87306373311796L759.8072663878862,64.99736646003029L760.6367400268376,64.38191063515532L760.7121467212877,63.509646453583485L761.7904624519246,63.413316084140334L762.3409313214105,63.832901481005216L763.788739854853,64.50926578952311L764.3165867160039,64.92660387199442L764.6860795188095,64.31346069788495L764.8218115688197,64.21613642598265L765.3044144133006,64.37611181461037L766.4279741606075,63.764933319041795L768.2075721496306,63.15508740549047L768.6977156635564,62.289938069103684L770.3189595942342,61.42667181798318L772.0985575832573,60.82161312089641L772.2569116416025,61.498767412998816L772.8978685444287,60.63827395553037L772.9129498833187,59.779647042863445L774.9489306334722,60.96872451815131L775.6803755696384,59.85499511281169L775.8161076196487,59.50997306281663" style="fill: none;" fill="none"/></g></g></g></g><g opacity="0.2"><g><g><g><path stroke="rgb(238, 51, 119)" stroke-width="2px" d="M22.073411904491266,164.7183630274345L22.46552671563194,164.7183630274345L23.01599558511788,487.74069394797806L24.094311315754734,810.7630248685217L24.154636671314833,326.2294996072576L25.33098110473685,3.2071109258167434L25.798502610327652,164.7183630274345L26.122751396463208,3.2071109258167434L26.175536082578297,326.2294996072576L26.53748821593892,326.2294996072576L26.63551691872409,326.2294996072576L27.140741771539957,164.7183630274345L27.84956469937117,487.74069394797806L29.402942605043833,326.2294996072576L29.795057416184505,810.7630248685217L31.808416158002963,164.7183630274345L31.838578835783014,810.7630248685217L32.20053096914363,810.7630248685217L32.253315655258724,164.7183630274345L32.58510511083929,164.7183630274345L34.50797581931759,-158.30402565400638L34.83222460545315,326.2294996072576L34.85484661378818,-158.30402565400638L35.910540336089994,487.74069394797806L36.21216711389051,164.7183630274345L37.10950677784705,810.7630248685217L38.33863589738416,972.2741903287935L38.81369807241997,326.2294996072576L39.15302819744555,164.7183630274345L39.771363091936614,649.2518305278012L40.12577455585222,649.2518305278012L40.495267358657856,326.2294996072576L40.50280802810286,487.74069394797806L40.59329606144302,487.74069394797806L40.849678822573466,3.2071109258167434L42.00340124766044,3.2071109258167434L42.418138067136155,487.74069394797806L46.11306609519249,487.74069394797806L46.23371680631269,164.7183630274345L46.678616303568454,649.2518305278012L49.03884583985751,164.7183630274345L49.05392717874753,164.7183630274345L49.43096065099817,3.2071109258167434L49.96634818159409,487.74069394797806L50.51681705108004,810.7630248685217L50.56960173719513,164.7183630274345L51.376453367811514,326.2294996072576L51.58759211227188,326.2294996072576L52.19084566787291,3.2071109258167434L53.39735277907498,164.7183630274345L54.30977378192154,810.7630248685217L54.93564934585761,3.2071109258167434L55.6293909347988,3.2071109258167434L55.75758231536402,487.74069394797806L57.01687411268119,164.7183630274345L57.861429090522634,326.2294996072576L59.24137159896,-481.3264143354474L60.25936197403674,164.7183630274345L60.47050071849711,164.7183630274345L62.06158197139483,326.2294996072576L62.16715134362501,164.7183630274345L63.599878538177464,487.74069394797806L64.58016556602915,3.2071109258167434L64.91195502160971,487.74069394797806L66.92531376342818,-158.30402565400638L68.50885434688088,326.2294996072576L68.65212706633613,810.7630248685217L69.17997392748704,-158.30402565400638L71.32906471931571,164.7183630274345L71.54774413322109,810.7630248685217L72.27164839994234,487.74069394797806L72.36213643328249,3.2071109258167434L73.44045216391935,810.7630248685217L74.2850071417608,326.2294996072576L75.71019366686824,-319.81516223382954L77.42192563088618,164.7183630274345L78.01009784759718,649.2518305278012L78.03271985593221,326.2294996072576L78.39467198929285,326.2294996072576L80.48343742556142,-319.81516223382954L82.01419332289905,487.74069394797806L82.57974353127501,3.2071109258167434L83.43937984800648,649.2518305278012L83.74854729525201,326.2294996072576L84.81932235644385,-481.3264143354474L84.92489172867404,3.2071109258167434L85.8373127315206,487.74069394797806L85.91271942597072,326.2294996072576L86.61400168435692,3.2071109258167434L88.70276712062551,487.74069394797806L93.15176209318314,810.7630248685217L93.80025966545425,3.2071109258167434L93.89828836823942,164.7183630274345L94.88611606553611,326.2294996072576L95.97951313506299,-158.30402565400638L96.46211597954381,-158.30402565400638L99.24462300475359,326.2294996072576L99.29740769086867,164.7183630274345L100.17212534649018,487.74069394797806L100.7753789020912,326.2294996072576L101.09962768822676,487.74069394797806L101.74058459105287,164.7183630274345L102.8716850078048,3.2071109258167434L103.04512040504011,487.74069394797806L103.96508207733167,326.2294996072576L103.98770408566672,326.2294996072576L104.44768492181251,810.7630248685217L104.5080102773726,164.7183630274345L104.85488107184321,649.2518305278012L107.86360818040336,-481.3264143354474L108.26326366098904,164.7183630274345L108.71570382768981,3.2071109258167434L108.97208658882026,-158.30402565400638L109.86942625277679,-319.81516223382954L110.42743579170775,3.2071109258167434L112.01097637516047,-481.3264143354474L113.48140691693798,487.74069394797806L114.43153126700963,326.2294996072576L117.30452632555954,-158.30402565400638L118.85790423123223,326.2294996072576L119.32542573682301,326.2294996072576L120.04178933409924,649.2518305278012L120.24538740911458,-158.30402565400638L120.60733954247522,3.2071109258167434L122.816755689864,3.2071109258167434L123.90261208994586,3.2071109258167434L124.28718623164153,487.74069394797806L125.89334882342928,649.2518305278012L126.45135836236024,326.2294996072576L127.92932957358275,326.2294996072576L128.9925639653296,-158.30402565400638L129.54303283481553,3.2071109258167434L129.8748222903961,810.7630248685217L130.6967552599025,649.2518305278012L132.13702312389998,3.2071109258167434L132.36324320725038,326.2294996072576L132.50651592670562,487.74069394797806L133.2002575156468,164.7183630274345L133.4264775989972,487.74069394797806L133.90908044347802,810.7630248685217L134.05235316293326,3.2071109258167434L137.30992236317883,487.74069394797806L140.44684085230423,-158.30402565400638L140.62781691898454,326.2294996072576L143.2821325636291,-642.8375509152704L144.2850415998158,164.7183630274345L144.82796979985676,3.2071109258167434L147.66326151118162,3.2071109258167434L148.50781648902304,164.7183630274345L148.86976862238367,326.2294996072576L149.1864767390742,-319.81516223382954L150.44576853639137,3.2071109258167434L150.67952928918677,326.2294996072576L152.1499598309643,164.7183630274345L152.3384765670896,164.7183630274345L152.50437129487992,3.2071109258167434L154.04266786166255,3.2071109258167434L154.14823723389273,3.2071109258167434L154.3669166477981,487.74069394797806L154.4272420033582,3.2071109258167434L157.9788973119593,487.74069394797806L160.8895957177343,3.2071109258167434L164.71271512635585,326.2294996072576L165.90414089866786,487.74069394797806L166.30379637925358,649.2518305278012L167.0729446626449,326.2294996072576L169.03351871834823,164.7183630274345L169.85545168785464,-158.30402565400638L169.96102106008485,164.7183630274345L170.5416526073508,-319.81516223382954L171.40882959352732,326.2294996072576L172.10257118246852,-319.81516223382954L172.53238934083424,164.7183630274345L172.83401611863476,326.2294996072576L172.96974816864497,164.7183630274345L173.0376141936501,-319.81516223382954L173.6107050714711,326.2294996072576L174.41001603264246,164.7183630274345L174.47034138820257,326.2294996072576L175.0057289187985,326.2294996072576L175.88798724386498,-319.81516223382954L176.6420541883663,-158.30402565400638L176.80794891615656,164.7183630274345L176.92859962727678,-158.30402565400638L178.4442741857244,3.2071109258167434L178.46689619405942,649.2518305278012L181.68676204707995,487.74069394797806L181.86019744431525,326.2294996072576L182.51623568603134,3.2071109258167434L183.0591638860723,-319.81516223382954L184.054532252814,3.2071109258167434L186.5052498224432,164.7183630274345L187.69667559475525,649.2518305278012L189.49889559211334,326.2294996072576L189.85330705602894,164.7183630274345L190.13985249493942,810.7630248685217L190.3509912393998,-319.81516223382954L191.21062755613127,3.2071109258167434L193.98559391189605,3.2071109258167434L196.23271340650987,164.7183630274345L196.30812010096,1133.7853702292896L196.63990955654057,-158.30402565400638L196.83596696211092,326.2294996072576L197.1752970871365,487.74069394797806L203.32848335426704,-481.3264143354474L203.84124887652794,3.2071109258167434L204.85923925160466,-481.3264143354474L204.8743205904947,3.2071109258167434L205.16086602940518,-158.30402565400638L205.33430142664048,164.7183630274345L207.41552619346405,-158.30402565400638L209.7757557297531,649.2518305278012L210.33376526868406,164.7183630274345L210.62785137703955,-481.3264143354474L211.27634894931066,-481.3264143354474L212.18122928271222,326.2294996072576L212.77694216886823,164.7183630274345L213.221841666124,487.74069394797806L216.39646350247446,487.74069394797806L216.66038693304992,164.7183630274345L217.21839647198084,164.7183630274345L218.31179354150774,649.2518305278012L218.50031027763308,487.74069394797806L218.9829131221139,164.7183630274345L219.08848249434405,-319.81516223382954L220.0989321999758,164.7183630274345L220.8529991444771,-319.81516223382954L221.35822399729298,326.2294996072576L223.8240229058122,326.2294996072576L223.83156357525718,164.7183630274345L224.0653243280526,3.2071109258167434L226.42555386434162,326.2294996072576L226.5160418976818,164.7183630274345L226.54620457546187,164.7183630274345L226.55374524490685,810.7630248685217L227.42092223108338,649.2518305278012L229.16281687288134,3.2071109258167434L229.90180247849258,164.7183630274345L230.0299938590578,-319.81516223382954L230.16572590906804,3.2071109258167434L231.57583109528548,649.2518305278012L232.26203201478165,164.7183630274345L232.5184147759121,3.2071109258167434L232.65414682592234,3.2071109258167434L235.3160031400119,-319.81516223382954L236.1982614650784,972.2741903287935L236.2962901678636,326.2294996072576L236.99003175680477,164.7183630274345L237.20871117071013,-158.30402565400638L240.2098976098253,487.74069394797806L240.40595501539565,3.2071109258167434L240.71512246264118,3.2071109258167434L240.90363919876646,326.2294996072576L241.95179225162326,326.2294996072576L242.41931375721407,326.2294996072576L243.9877730017768,164.7183630274345L244.10842371289695,164.7183630274345L244.6664332518279,-642.8375509152704L245.04346672407857,3.2071109258167434L246.0689977686003,-158.30402565400638L246.68733266309135,649.2518305278012L248.01449048541363,326.2294996072576L248.21054789098395,3.2071109258167434L248.67052872712975,487.74069394797806L249.80916981332672,-158.30402565400638L250.11833726057225,164.7183630274345L250.44258604670782,3.2071109258167434L251.4379544134495,-158.30402565400638L251.52090177734465,-319.81516223382954L252.5916768385365,164.7183630274345L253.3004997663677,-158.30402565400638L258.5789683778767,649.2518305278012L258.85797314734225,164.7183630274345L260.7657625169305,-642.8375509152704L261.61031749477195,164.7183630274345L262.1004610086978,3.2071109258167434L262.1532456948129,326.2294996072576L262.5755231837336,326.2294996072576L262.6433892087387,164.7183630274345L263.08828870599444,-319.81516223382954L263.18631740877964,164.7183630274345L264.3702025116467,164.7183630274345L264.6190446033321,487.74069394797806L268.38183865639354,-158.30402565400638L268.8041161453143,3.2071109258167434L269.799484512056,3.2071109258167434L269.8598098676161,3.2071109258167434L270.8551782343578,-158.30402565400638L271.7449772288693,326.2294996072576L271.9485753038847,649.2518305278012L271.9636566427747,164.7183630274345L272.6423168928259,3.2071109258167434L273.17016375397674,3.2071109258167434L273.4265465151072,-319.81516223382954L273.6376852595676,326.2294996072576L276.08840282919675,-158.30402565400638L276.9254171375932,-158.30402565400638L277.01590517093337,326.2294996072576L277.2044219070587,164.7183630274345L277.4834266765242,164.7183630274345L278.2676562988055,810.7630248685217L278.4109290182608,-319.81516223382954L279.2026993099871,326.2294996072576L280.869187257335,164.7183630274345L281.02754131568025,649.2518305278012L281.44227813515596,-319.81516223382954L282.0983163768721,3.2071109258167434L282.65632591580305,810.7630248685217L284.0438090936854,326.2294996072576L288.19117728844253,-158.30402565400638L288.4098567023479,-319.81516223382954L288.5229667440231,164.7183630274345L289.32227770519444,3.2071109258167434L290.0009379552456,-481.3264143354474L291.49399050535817,326.2294996072576L291.5467751914733,-158.30402565400638L292.0821627220692,3.2071109258167434L292.8663923443506,164.7183630274345L292.9945837249158,3.2071109258167434L293.49980857773164,-319.81516223382954L297.96388488917927,649.2518305278012L298.19010497252964,326.2294996072576L298.33337769198494,3.2071109258167434L299.00449727259104,-481.3264143354474L299.3966120837317,-319.81516223382954L299.63037283652716,3.2071109258167434L300.0601909948929,164.7183630274345L302.03584638948627,-158.30402565400638L304.19247785075993,487.74069394797806L304.4488606118904,3.2071109258167434L306.5225447092689,487.74069394797806L310.1646880512102,-481.3264143354474L311.61249658465266,3.2071109258167434L311.7331472957729,326.2294996072576L311.816094659668,164.7183630274345L313.1432524819903,164.7183630274345L313.58061130980104,164.7183630274345L313.7314246987013,164.7183630274345L314.6363050321029,164.7183630274345L315.69953942384967,164.7183630274345L315.88051549053,649.2518305278012L316.90604653505176,3.2071109258167434L317.629950801773,164.7183630274345L318.07485029902875,326.2294996072576L318.1577976629239,810.7630248685217L327.1538163108243,-481.3264143354474L328.26229471924125,326.2294996072576L328.3829454303614,-158.30402565400638L328.4131081081415,164.7183630274345L328.6619501998269,-481.3264143354474L329.36323245821313,-158.30402565400638L331.2257778111313,164.7183630274345L331.88935672229246,-642.8375509152704L332.76407437791397,649.2518305278012L332.9676724529293,164.7183630274345L333.4955193140802,-319.81516223382954L334.0082848363411,-319.81516223382954L334.6266197308321,326.2294996072576L334.98857186419275,164.7183630274345L335.10922257531297,164.7183630274345L337.49207411993706,-158.30402565400638L339.47527018397545,487.74069394797806L340.30474382292687,164.7183630274345L341.02110742020307,326.2294996072576L341.85812172859954,3.2071109258167434L341.9938537786098,-158.30402565400638L346.1563033122569,-481.3264143354474L348.1017960290703,3.2071109258167434L349.91155669587334,487.74069394797806L350.1754801264488,164.7183630274345L350.5826762764795,487.74069394797806L350.82397769871994,326.2294996072576L351.3669058987608,649.2518305278012L351.5705039737762,326.2294996072576L351.60066665155625,487.74069394797806L353.49337468225445,-158.30402565400638L354.09662823785555,3.2071109258167434L354.1267909156356,-158.30402565400638L355.4388673990678,649.2518305278012L355.8385228796535,326.2294996072576L357.95745099370214,-319.81516223382954L358.40989116040294,326.2294996072576L359.59377626326994,649.2518305278012L361.8710584356638,649.2518305278012L363.4244363413365,326.2294996072576L363.4923023663416,-319.81516223382954L364.90994822200406,487.74069394797806L365.1814123220245,164.7183630274345L366.04858930820103,-158.30402565400638L367.41345047774837,3.2071109258167434L368.87634035008085,-158.30402565400638L369.30615850844663,3.2071109258167434L369.9018713946026,-319.81516223382954L370.1733354946231,649.2518305278012L371.02543114190956,326.2294996072576L371.1460818530298,164.7183630274345L371.74179473918576,3.2071109258167434L372.3902923114569,326.2294996072576L377.6612202535209,-481.3264143354474L377.9854690396565,326.2294996072576L378.43790920635723,3.2071109258167434L378.5887225952575,3.2071109258167434L379.463440250879,-642.8375509152704L379.8555550620197,-319.81516223382954L380.3079952287205,164.7183630274345L380.57945932874094,-642.8375509152704L380.97911480932663,164.7183630274345L381.10730618989186,-319.81516223382954L381.212875562122,649.2518305278012L381.39385162880234,326.2294996072576L381.4843396621425,326.2294996072576L381.77842577049796,-481.3264143354474L383.4826170650709,-319.81516223382954L384.28192802624227,164.7183630274345L385.0736983179686,326.2294996072576L385.42056911243924,3.2071109258167434L387.6450665987181,-481.3264143354474L391.113774543424,-158.30402565400638L393.3005686824777,3.2071109258167434L393.7077648325084,326.2294996072576L393.89628156863375,164.7183630274345L394.8464059187054,-481.3264143354474L395.45720014375144,810.7630248685217L395.91718097989724,3.2071109258167434L396.0604536993525,-319.81516223382954L398.83542005511725,487.74069394797806L399.21245352736787,164.7183630274345L399.91373578575406,649.2518305278012L406.1724914251148,-481.3264143354474L407.3412951890918,326.2294996072576L408.04257744747804,-158.30402565400638L408.45731426695374,164.7183630274345L408.9097544336545,-158.30402565400638L411.98634756721975,3.2071109258167434L412.3482997005804,3.2071109258167434L412.4086250561405,-158.30402565400638L413.5246441340024,-481.3264143354474L413.87905559791807,326.2294996072576L414.37673978128885,-158.30402565400638L415.6586535869411,-158.30402565400638L416.07339040641676,164.7183630274345L416.53337124256257,326.2294996072576L416.789754003693,649.2518305278012L417.7172563454296,487.74069394797806L417.8529883954398,3.2071109258167434L419.0142514899718,-158.30402565400638L419.91913182337333,3.2071109258167434L420.7033614456547,164.7183630274345L420.95220353734015,3.2071109258167434L421.434806381821,649.2518305278012L424.4359928209362,-319.81516223382954L424.49631817649623,3.2071109258167434L424.941217673752,164.7183630274345L425.04678704598217,-158.30402565400638L426.735897001665,-158.30402565400638L426.7886816877801,164.7183630274345L426.8188443655602,3.2071109258167434L426.84900704334024,326.2294996072576L427.9122414350871,164.7183630274345L428.1610835267725,810.7630248685217L428.24403089066766,487.74069394797806L429.4957820185398,164.7183630274345L429.60889206021494,-319.81516223382954L429.76724611856025,164.7183630274345L429.8803561602354,-158.30402565400638L430.770155154747,3.2071109258167434L432.4668057798749,164.7183630274345L433.665772221632,-642.8375509152704L433.8316669494222,164.7183630274345L434.1634564050028,-319.81516223382954L436.018461088476,649.2518305278012L436.3577912135015,164.7183630274345L437.9488724663993,-642.8375509152704L438.74818342757067,164.7183630274345L438.7708054359057,3.2071109258167434L438.9668628414761,326.2294996072576L439.20062359427146,164.7183630274345L440.5504034249288,-481.3264143354474L442.2696760583917,-642.8375509152704L443.77780994739425,3.2071109258167434L444.7203936280209,-481.3264143354474L447.8573121171463,487.74069394797806L447.96288148937646,326.2294996072576L448.01566617549156,3.2071109258167434L448.61891973109255,3.2071109258167434L449.96869956174993,-158.30402565400638L450.2175416534354,164.7183630274345L451.56732148409264,326.2294996072576L453.82952231759646,-481.3264143354474L453.87476633426655,3.2071109258167434L455.22454616492394,-158.30402565400638L457.3057709317475,-481.3264143354474L461.3400290848294,164.7183630274345L461.7246032265251,326.2294996072576L462.4334261543563,326.2294996072576L463.3081438099778,487.74069394797806L463.7228806294535,3.2071109258167434L463.9491007128039,-319.81516223382954L466.76177041579365,649.2518305278012L466.8824211269139,164.7183630274345L466.92766514358397,649.2518305278012L468.6469377770469,164.7183630274345L469.00134924096255,164.7183630274345L469.9137702438091,326.2294996072576L471.36157877725157,810.7630248685217L471.7084495717222,487.74069394797806L472.21367442453806,3.2071109258167434L472.3192437967682,487.74069394797806L475.5466503192338,487.74069394797806L475.5918943359039,164.7183630274345L475.7577890636941,-319.81516223382954L479.2566596861801,-481.3264143354474L482.65750160588095,164.7183630274345L483.2833771698171,-158.30402565400638L483.8187647004129,326.2294996072576L484.5502096365792,-158.30402565400638L486.8651951561982,-158.30402565400638L490.3263624314591,326.2294996072576L490.9296159870602,-642.8375509152704L493.16919481222897,164.7183630274345L493.40295556502434,164.7183630274345L493.46328092058445,810.7630248685217L498.4778261015182,-158.30402565400638L499.5184384849299,164.7183630274345L500.04628534608077,3.2071109258167434L500.05382601552583,3.2071109258167434L500.6872422489069,326.2294996072576L501.8786680212189,326.2294996072576L502.7081416601703,-158.30402565400638L503.3415578935515,326.2294996072576L504.269060235288,-319.81516223382954L505.0985338742395,164.7183630274345L505.6640840826155,326.2294996072576L506.0561988937562,326.2294996072576L508.21283035502984,-319.81516223382954L508.2882370494799,3.2071109258167434L508.30331838837,-158.30402565400638L509.5399881773521,164.7183630274345L511.0632034052447,3.2071109258167434L511.817270349746,326.2294996072576L511.90021771364115,3.2071109258167434L512.3074138636719,164.7183630274345L513.7476817276694,649.2518305278012L513.9663611415747,3.2071109258167434L514.1020931915849,326.2294996072576L514.727968755521,649.2518305278012L515.293518963897,3.2071109258167434L515.5272797166923,649.2518305278012L519.8103799614597,649.2518305278012L521.688006653268,326.2294996072576L523.4676046422909,3.2071109258167434L524.3197002895774,487.74069394797806L525.3753940118793,810.7630248685217L526.5894417925263,3.2071109258167434L526.8005805369867,487.74069394797806L527.1399106620122,3.2071109258167434L530.2994511594727,487.74069394797806L536.6411541627286,-481.3264143354474L537.3725990988949,3.2071109258167434L537.7571732405904,-319.81516223382954L538.3830488045265,3.2071109258167434L538.9712210212375,487.74069394797806L541.9724074603527,-481.3264143354474L543.35234996879,164.7183630274345L543.3598906382351,3.2071109258167434L543.4579193410203,164.7183630274345L544.5211537327671,-642.8375509152704L544.8981872050177,164.7183630274345L545.4939000911737,326.2294996072576L545.652254149519,3.2071109258167434L547.0548186662915,164.7183630274345L547.2584167413067,3.2071109258167434L547.4846368246572,-481.3264143354474L553.0873542223018,-319.81516223382954L553.3211149750971,164.7183630274345L553.5925790751176,164.7183630274345L553.9771532168133,3.2071109258167434L554.5502440946343,326.2294996072576L556.5032774808926,3.2071109258167434L557.1140717059386,164.7183630274345L559.1952964727622,487.74069394797806L559.5120045894528,164.7183630274345L560.3716409061842,326.2294996072576L561.3217652562558,-158.30402565400638L561.5178226618262,-481.3264143354474L562.3925403174477,3.2071109258167434L563.5538034119797,-642.8375509152704L564.360655042596,-642.8375509152704L564.5265497703864,326.2294996072576L564.7753918620717,649.2518305278012L564.9639085981971,3.2071109258167434L566.1704157093992,164.7183630274345L566.7585879261102,-319.81516223382954L568.0329610623173,-481.3264143354474L568.8925973790489,3.2071109258167434L570.136807837476,3.2071109258167434L571.267908254228,810.7630248685217L571.8334584626039,3.2071109258167434L572.2934392987497,326.2294996072576L573.5753531044019,-319.81516223382954L574.6235061572586,3.2071109258167434L577.8659940186142,487.74069394797806L578.1751614658598,326.2294996072576L578.2128648130848,326.2294996072576L578.5672762770005,649.2518305278012L579.1931518409365,-158.30402565400638L579.8491900826526,164.7183630274345L581.1763479049749,164.7183630274345L581.22913259109,-481.3264143354474L588.3626058860722,487.74069394797806L588.5963666388676,3.2071109258167434L590.8434861334815,-158.30402565400638L592.0499932446836,487.74069394797806L592.5627587669444,164.7183630274345L594.3046534087424,3.2071109258167434L594.3197347476325,3.2071109258167434L595.269859097704,164.7183630274345L595.5941078838396,3.2071109258167434L596.4914475477962,3.2071109258167434L598.0976101395839,164.7183630274345L598.4821842812795,-642.8375509152704L599.9224521452771,-158.30402565400638L600.1637535675175,326.2294996072576L600.8047104703436,326.2294996072576L601.679428125965,3.2071109258167434L601.7322128120802,3.2071109258167434L601.8151601759753,-319.81516223382954L603.8813036039088,-158.30402565400638L604.8314279539804,326.2294996072576L605.8569589985023,649.2518305278012L606.3848058596532,326.2294996072576L607.2369015069396,649.2518305278012L609.1823942237529,-158.30402565400638L610.6302027571954,164.7183630274345L610.946910873886,-319.81516223382954L611.9271979017376,-158.30402565400638L615.7729393186942,326.2294996072576L616.2857048409551,164.7183630274345L616.8663363882212,-481.3264143354474L618.3443075994436,-158.30402565400638L619.7996568023311,164.7183630274345L620.319962994037,326.2294996072576L620.6215897718375,326.2294996072576L621.9713696024949,-642.8375509152704L622.1448049997301,-481.3264143354474L622.7178958775512,3.2071109258167434L623.5926135331727,-481.3264143354474L627.6570343640346,649.2518305278012L627.9511204723901,3.2071109258167434L628.0717711835104,-481.3264143354474L629.1576275835922,164.7183630274345L629.3536849891625,3.2071109258167434L629.632689758628,164.7183630274345L631.2388523504158,3.2071109258167434L631.5329384587712,649.2518305278012L631.5480197976613,3.2071109258167434L632.1437326838172,-158.30402565400638L632.5207661560679,-481.3264143354474L632.6640388755233,326.2294996072576L633.4331871589145,-319.81516223382954L639.7296461455003,-158.30402565400638L640.6948518344619,164.7183630274345L641.9767656401142,3.2071109258167434L643.3416268096615,164.7183630274345L643.7639042985821,3.2071109258167434L644.0579904069377,326.2294996072576L644.9779520792293,3.2071109258167434L645.2871195264748,-158.30402565400638L646.3578945876666,-319.81516223382954L646.4936266376769,3.2071109258167434L647.0591768460529,-158.30402565400638L649.6456264656923,-319.81516223382954L651.4780091408304,164.7183630274345L653.3782578409738,487.74069394797806L654.5923056216208,-158.30402565400638L654.9542577549814,164.7183630274345L656.4171476273139,-158.30402565400638L656.6584490495544,326.2294996072576L656.7187744051145,-158.30402565400638L657.0958078773651,-158.30402565400638L658.1439609302219,326.2294996072576L658.2570709718971,-319.81516223382954L658.754755155268,3.2071109258167434L659.7048795053396,-319.81516223382954L660.3458364081656,164.7183630274345L660.7530325581964,-481.3264143354474L661.3412047749074,326.2294996072576L662.4119798360991,-158.30402565400638L663.1057214250404,-481.3264143354474L663.3847261945059,326.2294996072576L663.9879797501069,3.2071109258167434L664.5459892890378,-158.30402565400638L667.0268695364471,-319.81516223382954L667.509472380928,3.2071109258167434L667.8035584892834,326.2294996072576L667.8865058531786,326.2294996072576L668.3615680282144,3.2071109258167434L670.1411660172375,3.2071109258167434L670.3598454311428,487.74069394797806L670.8650702839586,326.2294996072576L673.6626586480585,164.7183630274345L674.8314624120354,487.74069394797806L675.095385842611,326.2294996072576L675.148170528726,487.74069394797806L676.2340269288079,810.7630248685217L676.5808977232784,164.7183630274345L676.7769551288488,649.2518305278012L677.1841512788795,164.7183630274345L677.8552708594857,-158.30402565400638L682.4777012292785,487.74069394797806L682.8170313543043,326.2294996072576L683.9556724405012,164.7183630274345L684.0461604738413,164.7183630274345L685.5542943628438,-319.81516223382954L686.3686866629052,-319.81516223382954L688.1558253213733,164.7183630274345L688.6610501741892,-158.30402565400638L690.4180261548772,487.74069394797806L691.1117677438184,3.2071109258167434L691.481260546624,326.2294996072576L692.2881121772405,-158.30402565400638L698.6222745110513,-319.81516223382954L699.4592888194477,326.2294996072576L699.602561538903,-481.3264143354474L700.213355763949,3.2071109258167434L700.6356332528698,-319.81516223382954L700.6808772695398,3.2071109258167434L702.2040924974324,649.2518305278012L702.7243986891383,3.2071109258167434L702.8224273919235,164.7183630274345L703.8102550892202,-319.81516223382954L707.3543697283762,3.2071109258167434L708.5156328229082,-481.3264143354474L711.313221187008,-319.81516223382954L711.5319006009134,164.7183630274345L712.6630010176654,3.2071109258167434L712.8138144065656,-319.81516223382954L712.8364364149006,3.2071109258167434L713.3039579204915,164.7183630274345L713.4773933177268,-158.30402565400638L713.5000153260618,326.2294996072576L715.0156898845094,-158.30402565400638L715.5661587539953,326.2294996072576L716.2071156568214,-158.30402565400638L716.4031730623918,326.2294996072576L717.3532974124635,3.2071109258167434L717.8283595874992,164.7183630274345L720.3695651904685,164.7183630274345L720.9954407544046,3.2071109258167434L721.4403402516605,-319.81516223382954L721.4554215905505,164.7183630274345L721.6891823433458,-158.30402565400638L722.2245698739417,164.7183630274345L723.9890865240748,164.7183630274345L724.7205314602411,164.7183630274345L726.5906174826042,-158.30402565400638L729.8331053439598,-319.81516223382954L731.0396124551619,326.2294996072576L733.445086008121,-319.81516223382954L733.7165501081414,3.2071109258167434L733.7768754637016,-158.30402565400638L740.9631334447988,-158.30402565400638L741.2044348670393,326.2294996072576L741.7398223976353,164.7183630274345L742.0188271671007,-642.8375509152704L744.6052767867401,-158.30402565400638L745.2763963673464,164.7183630274345L745.4498317645816,-158.30402565400638L747.9307120119909,649.2518305278012L748.5339655675918,164.7183630274345L749.167381800973,326.2294996072576L749.4690085787735,-481.3264143354474L749.6952286621239,-158.30402565400638L750.1853721760497,3.2071109258167434L750.4266735982901,-481.3264143354474L753.3373720040651,-481.3264143354474L754.3779843874769,3.2071109258167434L754.9058312486278,3.2071109258167434L755.4336781097787,164.7183630274345L755.7202235486892,-481.3264143354474L756.3385584431803,-319.81516223382954L756.6703478987607,3.2071109258167434L757.1227880654616,-158.30402565400638L758.1256971016483,972.2741903287935L758.7968166822545,164.7183630274345L759.1813908239501,487.74069394797806L760.7121467212877,-481.3264143354474L761.7904624519246,3.2071109258167434L762.3409313214105,326.2294996072576L763.788739854853,487.74069394797806L764.3165867160039,326.2294996072576L764.6860795188095,-319.81516223382954L764.8218115688197,3.2071109258167434L765.3044144133006,164.7183630274345L766.4279741606075,-319.81516223382954" style="fill: none;" fill="none"/></g></g></g></g></g></g><g transform="translate(51, 377)" clip-path="url(#clip_1)"><clipPath id="clip_1"><rect width="847" height="23"/></clipPath><g><g><line x1="21.756703787800724" y1="0" x2="21.756703787800724" y2="5" style="visibility: inherit;" fill="rgb(0, 0, 0)" stroke="rgb(204, 204, 204)" stroke-width="1px"/><line x1="97.16339823793002" y1="0" x2="97.16339823793002" y2="5" style="visibility: inherit;" fill="rgb(0, 0, 0)" stroke="rgb(204, 204, 204)" stroke-width="1px"/><line x1="172.5700926880593" y1="0" x2="172.5700926880593" y2="5" style="visibility: inherit;" fill="rgb(0, 0, 0)" stroke="rgb(204, 204, 204)" stroke-width="1px"/><line x1="247.9767871381886" y1="0" x2="247.9767871381886" y2="5" style="visibility: inherit;" fill="rgb(0, 0, 0)" stroke="rgb(204, 204, 204)" stroke-width="1px"/><line x1="323.38348158831786" y1="0" x2="323.38348158831786" y2="5" style="visibility: inherit;" fill="rgb(0, 0, 0)" stroke="rgb(204, 204, 204)" stroke-width="1px"/><line x1="398.79017603844716" y1="0" x2="398.79017603844716" y2="5" style="visibility: inherit;" fill="rgb(0, 0, 0)" stroke="rgb(204, 204, 204)" stroke-width="1px"/><line x1="474.1968704885764" y1="0" x2="474.1968704885764" y2="5" style="visibility: inherit;" fill="rgb(0, 0, 0)" stroke="rgb(204, 204, 204)" stroke-width="1px"/><line x1="549.6035649387057" y1="0" x2="549.6035649387057" y2="5" style="visibility: inherit;" fill="rgb(0, 0, 0)" stroke="rgb(204, 204, 204)" stroke-width="1px"/><line x1="625.010259388835" y1="0" x2="625.010259388835" y2="5" style="visibility: inherit;" fill="rgb(0, 0, 0)" stroke="rgb(204, 204, 204)" stroke-width="1px"/><line x1="700.4169538389643" y1="0" x2="700.4169538389643" y2="5" style="visibility: inherit;" fill="rgb(0, 0, 0)" stroke="rgb(204, 204, 204)" stroke-width="1px"/><line x1="775.8236482890936" y1="0" x2="775.8236482890936" y2="5" style="visibility: inherit;" fill="rgb(0, 0, 0)" stroke="rgb(204, 204, 204)" stroke-width="1px"/></g><g transform="translate(0, 8)"><text x="21.756703787800724" y="0" dx="0em" dy="0.95em" style="text-anchor: middle; visibility: inherit; font-family: Roboto, sans-serif; font-size: 12px; font-weight: 200;" fill="rgb(255, 255, 255)" stroke="none" stroke-width="1px">0</text><text x="97.16339823793002" y="0" dx="0em" dy="0.95em" style="text-anchor: middle; visibility: inherit; font-family: Roboto, sans-serif; font-size: 12px; font-weight: 200;" fill="rgb(255, 255, 255)" stroke="none" stroke-width="1px">10k</text><text x="172.5700926880593" y="0" dx="0em" dy="0.95em" style="text-anchor: middle; visibility: inherit; font-family: Roboto, sans-serif; font-size: 12px; font-weight: 200;" fill="rgb(255, 255, 255)" stroke="none" stroke-width="1px">20k</text><text x="247.9767871381886" y="0" dx="0em" dy="0.95em" style="text-anchor: middle; visibility: inherit; font-family: Roboto, sans-serif; font-size: 12px; font-weight: 200;" fill="rgb(255, 255, 255)" stroke="none" stroke-width="1px">30k</text><text x="323.38348158831786" y="0" dx="0em" dy="0.95em" style="text-anchor: middle; visibility: inherit; font-family: Roboto, sans-serif; font-size: 12px; font-weight: 200;" fill="rgb(255, 255, 255)" stroke="none" stroke-width="1px">40k</text><text x="398.79017603844716" y="0" dx="0em" dy="0.95em" style="text-anchor: middle; visibility: inherit; font-family: Roboto, sans-serif; font-size: 12px; font-weight: 200;" fill="rgb(255, 255, 255)" stroke="none" stroke-width="1px">50k</text><text x="474.1968704885764" y="0" dx="0em" dy="0.95em" style="text-anchor: middle; visibility: inherit; font-family: Roboto, sans-serif; font-size: 12px; font-weight: 200;" fill="rgb(255, 255, 255)" stroke="none" stroke-width="1px">60k</text><text x="549.6035649387057" y="0" dx="0em" dy="0.95em" style="text-anchor: middle; visibility: inherit; font-family: Roboto, sans-serif; font-size: 12px; font-weight: 200;" fill="rgb(255, 255, 255)" stroke="none" stroke-width="1px">70k</text><text x="625.010259388835" y="0" dx="0em" dy="0.95em" style="text-anchor: middle; visibility: inherit; font-family: Roboto, sans-serif; font-size: 12px; font-weight: 200;" fill="rgb(255, 255, 255)" stroke="none" stroke-width="1px">80k</text><text x="700.4169538389643" y="0" dx="0em" dy="0.95em" style="text-anchor: middle; visibility: inherit; font-family: Roboto, sans-serif; font-size: 12px; font-weight: 200;" fill="rgb(255, 255, 255)" stroke="none" stroke-width="1px">90k</text><text x="775.8236482890936" y="0" dx="0em" dy="0.95em" style="text-anchor: middle; visibility: inherit; font-family: Roboto, sans-serif; font-size: 12px; font-weight: 200;" fill="rgb(255, 255, 255)" stroke="none" stroke-width="1px">100k</text></g><line x1="0" y1="0" x2="847.6875" y2="0" fill="rgb(0, 0, 0)" stroke="rgb(204, 204, 204)" stroke-width="1px"/></g></g></g></g></svg>