<svg xmlns="http://www.w3.org/2000/svg" viewBox="0 0 899.25 400"><g><g><g><g><g><line x1="51.5625" y1="377" x2="46.5625" y2="377" style="visibility: inherit;" fill="rgb(0, 0, 0)" stroke="rgb(204, 204, 204)" stroke-width="1px"/><line x1="51.5625" y1="345.58333333333337" x2="46.5625" y2="345.58333333333337" style="visibility: inherit;" fill="rgb(0, 0, 0)" stroke="rgb(204, 204, 204)" stroke-width="1px"/><line x1="51.5625" y1="314.16666666666663" x2="46.5625" y2="314.16666666666663" style="visibility: inherit;" fill="rgb(0, 0, 0)" stroke="rgb(204, 204, 204)" stroke-width="1px"/><line x1="51.5625" y1="282.75000000000006" x2="46.5625" y2="282.75000000000006" style="visibility: inherit;" fill="rgb(0, 0, 0)" stroke="rgb(204, 204, 204)" stroke-width="1px"/><line x1="51.5625" y1="251.33333333333337" x2="46.5625" y2="251.33333333333337" style="visibility: inherit;" fill="rgb(0, 0, 0)" stroke="rgb(204, 204, 204)" stroke-width="1px"/><line x1="51.5625" y1="219.9166666666667" x2="46.5625" y2="219.9166666666667" style="visibility: inherit;" fill="rgb(0, 0, 0)" stroke="rgb(204, 204, 204)" stroke-width="1px"/><line x1="51.5625" y1="188.50000000000003" x2="46.5625" y2="188.50000000000003" style="visibility: inherit;" fill="rgb(0, 0, 0)" stroke="rgb(204, 204, 204)" stroke-width="1px"/><line x1="51.5625" y1="157.08333333333337" x2="46.5625" y2="157.08333333333337" style="visibility: inherit;" fill="rgb(0, 0, 0)" stroke="rgb(204, 204, 204)" stroke-width="1px"/><line x1="51.5625" y1="125.66666666666673" x2="46.5625" y2="125.66666666666673" style="visibility: inherit;" fill="rgb(0, 0, 0)" stroke="rgb(204, 204, 204)" stroke-width="1px"/><line x1="51.5625" y1="94.25000000000004" x2="46.5625" y2="94.25000000000004" style="visibility: inherit;" fill="rgb(0, 0, 0)" stroke="rgb(204, 204, 204)" stroke-width="1px"/><line x1="51.5625" y1="62.8333333333334" x2="46.5625" y2="62.8333333333334" style="visibility: inherit;" fill="rgb(0, 0, 0)" stroke="rgb(204, 204, 204)" stroke-width="1px"/><line x1="51.5625" y1="31.416666666666682" x2="46.5625" y2="31.416666666666682" style="visibility: inherit;" fill="rgb(0, 0, 0)" stroke="rgb(204, 204, 204)" stroke-width="1px"/><line x1="51.5625" y1="0" x2="46.5625" y2="0" style="visibility: inherit;" fill="rgb(0, 0, 0)" stroke="rgb(204, 204, 204)" stroke-width="1px"/></g><g transform="translate(41.5625, 0)"><text x="0" y="377" dx="0em" dy="0.3em" style="text-anchor: end; visibility: hidden; font-family: Roboto, sans-serif; font-size: 12px; font-weight: 200;" fill="rgb(255, 255, 255)" stroke="none" stroke-width="1px">0.45</text><text x="0" y="345.58333333333337" dx="0em" dy="0.3em" style="text-anchor: end; visibility: inherit; font-family: Roboto, sans-serif; font-size: 12px; font-weight: 200;" fill="rgb(255, 255, 255)" stroke="none" stroke-width="1px">0.5</text><text x="0" y="314.16666666666663" dx="0em" dy="0.3em" style="text-anchor: end; visibility: inherit; font-family: Roboto, sans-serif; font-size: 12px; font-weight: 200;" fill="rgb(255, 255, 255)" stroke="none" stroke-width="1px">0.55</text><text x="0" y="282.75000000000006" dx="0em" dy="0.3em" style="text-anchor: end; visibility: inherit; font-family: Roboto, sans-serif; font-size: 12px; font-weight: 200;" fill="rgb(255, 255, 255)" stroke="none" stroke-width="1px">0.6</text><text x="0" y="251.33333333333337" dx="0em" dy="0.3em" style="text-anchor: end; visibility: inherit; font-family: Roboto, sans-serif; font-size: 12px; font-weight: 200;" fill="rgb(255, 255, 255)" stroke="none" stroke-width="1px">0.65</text><text x="0" y="219.9166666666667" dx="0em" dy="0.3em" style="text-anchor: end; visibility: inherit; font-family: Roboto, sans-serif; font-size: 12px; font-weight: 200;" fill="rgb(255, 255, 255)" stroke="none" stroke-width="1px">0.7</text><text x="0" y="188.50000000000003" dx="0em" dy="0.3em" style="text-anchor: end; visibility: inherit; font-family: Roboto, sans-serif; font-size: 12px; font-weight: 200;" fill="rgb(255, 255, 255)" stroke="none" stroke-width="1px">0.75</text><text x="0" y="157.08333333333337" dx="0em" dy="0.3em" style="text-anchor: end; visibility: inherit; font-family: Roboto, sans-serif; font-size: 12px; font-weight: 200;" fill="rgb(255, 255, 255)" stroke="none" stroke-width="1px">0.8</text><text x="0" y="125.66666666666673" dx="0em" dy="0.3em" style="text-anchor: end; visibility: inherit; font-family: Roboto, sans-serif; font-size: 12px; font-weight: 200;" fill="rgb(255, 255, 255)" stroke="none" stroke-width="1px">0.85</text><text x="0" y="94.25000000000004" dx="0em" dy="0.3em" style="text-anchor: end; visibility: inherit; font-family: Roboto, sans-serif; font-size: 12px; font-weight: 200;" fill="rgb(255, 255, 255)" stroke="none" stroke-width="1px">0.9</text><text x="0" y="62.8333333333334" dx="0em" dy="0.3em" style="text-anchor: end; visibility: inherit; font-family: Roboto, sans-serif; font-size: 12px; font-weight: 200;" fill="rgb(255, 255, 255)" stroke="none" stroke-width="1px">0.95</text><text x="0" y="31.416666666666682" dx="0em" dy="0.3em" style="text-anchor: end; visibility: inherit; font-family: Roboto, sans-serif; font-size: 12px; font-weight: 200;" fill="rgb(255, 255, 255)" stroke="none" stroke-width="1px">1</text><text x="0" y="0" dx="0em" dy="0.3em" style="text-anchor: end; visibility: hidden; font-family: Roboto, sans-serif; font-size: 12px; font-weight: 200;" fill="rgb(255, 255, 255)" stroke="none" stroke-width="1px">1.05</text></g><line x1="51.5625" y1="0" x2="51.5625" y2="377" fill="rgb(0, 0, 0)" stroke="rgb(204, 204, 204)" stroke-width="1px"/></g></g><g transform="translate(51, 0)" clip-path="url(#clip_0)"><clipPath id="clip_0"><rect width="847" height="377"/></clipPath><g><g><g><line x1="0" y1="0" x2="0" y2="377" fill="rgb(0, 0, 0)" stroke="rgb(189, 189, 189)" stroke-width="1px" opacity="0.25"/><line x1="70.640625" y1="0" x2="70.640625" y2="377" fill="rgb(0, 0, 0)" stroke="rgb(189, 189, 189)" stroke-width="1px" opacity="0.25"/><line x1="141.28125" y1="0" x2="141.28125" y2="377" fill="rgb(0, 0, 0)" stroke="rgb(189, 189, 189)" stroke-width="1px" opacity="0.25"/><line x1="211.921875" y1="0" x2="211.921875" y2="377" fill="rgb(0, 0, 0)" stroke="rgb(189, 189, 189)" stroke-width="1px" opacity="0.25"/><line x1="282.5625" y1="0" x2="282.5625" y2="377" fill="rgb(0, 0, 0)" stroke="rgb(189, 189, 189)" stroke-width="1px" opacity="0.25"/><line x1="353.203125" y1="0" x2="353.203125" y2="377" fill="rgb(0, 0, 0)" stroke="rgb(189, 189, 189)" stroke-width="1px" opacity="0.25"/><line x1="423.84375" y1="0" x2="423.84375" y2="377" fill="rgb(0, 0, 0)" stroke="rgb(189, 189, 189)" stroke-width="1px" opacity="0.25"/><line x1="494.48437500000006" y1="0" x2="494.48437500000006" y2="377" fill="rgb(0, 0, 0)" stroke="rgb(189, 189, 189)" stroke-width="1px" opacity="0.25"/><line x1="565.125" y1="0" x2="565.125" y2="377" fill="rgb(0, 0, 0)" stroke="rgb(189, 189, 189)" stroke-width="1px" opacity="0.25"/><line x1="635.765625" y1="0" x2="635.765625" y2="377" fill="rgb(0, 0, 0)" stroke="rgb(189, 189, 189)" stroke-width="1px" opacity="0.25"/><line x1="706.40625" y1="0" x2="706.40625" y2="377" fill="rgb(0, 0, 0)" stroke="rgb(189, 189, 189)" stroke-width="1px" opacity="0.25"/><line x1="777.046875" y1="0" x2="777.046875" y2="377" fill="rgb(0, 0, 0)" stroke="rgb(189, 189, 189)" stroke-width="1px" opacity="0.25"/><line x1="847.6875" y1="0" x2="847.6875" y2="377" fill="rgb(0, 0, 0)" stroke="rgb(189, 189, 189)" stroke-width="1px" opacity="0.25"/></g><g><line x1="0" y1="377" x2="847.6875" y2="377" fill="rgb(0, 0, 0)" stroke="rgb(189, 189, 189)" stroke-width="1px" opacity="0.25"/><line x1="0" y1="345.58333333333337" x2="847.6875" y2="345.58333333333337" fill="rgb(0, 0, 0)" stroke="rgb(189, 189, 189)" stroke-width="1px" opacity="0.25"/><line x1="0" y1="314.16666666666663" x2="847.6875" y2="314.16666666666663" fill="rgb(0, 0, 0)" stroke="rgb(189, 189, 189)" stroke-width="1px" opacity="0.25"/><line x1="0" y1="282.75000000000006" x2="847.6875" y2="282.75000000000006" fill="rgb(0, 0, 0)" stroke="rgb(189, 189, 189)" stroke-width="1px" opacity="0.25"/><line x1="0" y1="251.33333333333337" x2="847.6875" y2="251.33333333333337" fill="rgb(0, 0, 0)" stroke="rgb(189, 189, 189)" stroke-width="1px" opacity="0.25"/><line x1="0" y1="219.9166666666667" x2="847.6875" y2="219.9166666666667" fill="rgb(0, 0, 0)" stroke="rgb(189, 189, 189)" stroke-width="1px" opacity="0.25"/><line x1="0" y1="188.50000000000003" x2="847.6875" y2="188.50000000000003" fill="rgb(0, 0, 0)" stroke="rgb(189, 189, 189)" stroke-width="1px" opacity="0.25"/><line x1="0" y1="157.08333333333337" x2="847.6875" y2="157.08333333333337" fill="rgb(0, 0, 0)" stroke="rgb(189, 189, 189)" stroke-width="1px" opacity="0.25"/><line x1="0" y1="125.66666666666673" x2="847.6875" y2="125.66666666666673" fill="rgb(0, 0, 0)" stroke="rgb(189, 189, 189)" stroke-width="1px" opacity="0.25"/><line x1="0" y1="94.25000000000004" x2="847.6875" y2="94.25000000000004" fill="rgb(0, 0, 0)" stroke="rgb(189, 189, 189)" stroke-width="1px" opacity="0.25"/><line x1="0" y1="62.8333333333334" x2="847.6875" y2="62.8333333333334" fill="rgb(0, 0, 0)" stroke="rgb(189, 189, 189)" stroke-width="1px" opacity="0.25"/><line x1="0" y1="31.416666666666682" x2="847.6875" y2="31.416666666666682" fill="rgb(0, 0, 0)" stroke="rgb(189, 189, 189)" stroke-width="1px" opacity="0.25"/><line x1="0" y1="0" x2="847.6875" y2="0" fill="rgb(0, 0, 0)" stroke="rgb(189, 189, 189)" stroke-width="1px" opacity="0.25"/></g></g></g><g><g><line x1="0" y1="659.75" x2="847.6875" y2="659.75" fill="rgb(0, 0, 0)" stroke="rgb(153, 153, 153)" stroke-width="1.5px"/></g></g><g><g><line x1="70.640625" y1="0" x2="70.640625" y2="377" fill="rgb(0, 0, 0)" stroke="rgb(153, 153, 153)" stroke-width="1.5px"/></g></g><g><g><g><g><g><path stroke="rgb(51, 187, 238)" stroke-width="2px" d="M74.243296875,365.3309549490611L81.23671875000001,318.6547447840373L88.371421875,361.7404714822769L95.36484375,361.7404714822769L102.49954687500001,343.78809159994125L109.49296875000002,329.42619518438977L116.627671875,372.51190315683687L123.62109375000001,315.0642987688383L130.755796875,361.7404714822769L137.74921875,361.7404714822769L144.883921875,185.8071561257045L151.87734375,365.3309549490611L159.01204687499998,42.18807961543404L166.00546875,49.36904654900234L173.140171875,42.18807961543404L180.13359375,289.93095195293427L187.268296875,49.36904654900234L194.26171875,42.18807961543404L201.39642187500002,96.0452567140262L208.38984374999998,307.8833318352699L215.52454687499997,31.416666666666682L222.51796875000002,31.416666666666682L229.65267187499998,35.00715013345086L236.64609375,31.416666666666682L243.78079687500002,354.5595232745012L250.77421875000002,153.49284237623218L257.90892187500003,200.16905254125598L264.90234375,85.27380631367372L272.037046875,38.59763360023503L279.03046875,31.416666666666682L286.165171875,31.416666666666682L293.15859374999997,45.77856308221821L300.293296875,35.00715013345086L307.28671875,42.18807961543404L314.421421875,124.76904954512916L321.41484375,45.77856308221821L328.549546875,42.18807961543404L335.54296875,49.36904654900234L342.677671875,35.00715013345086L349.67109374999995,67.32142643133805L356.805796875,31.416666666666682L363.79921874999997,35.00715013345086L370.933921875,42.18807961543404L377.92734375000003,38.59763360023503L385.06204687499996,31.416666666666682L392.05546875000005,31.416666666666682L399.190171875,31.416666666666682L406.18359375,38.59763360023503L413.318296875,35.00715013345086L420.31171875,35.00715013345086L427.446421875,42.18807961543404L434.43984374999997,45.77856308221821L441.574546875,38.59763360023503L448.56796875000003,35.00715013345086L455.63203124999995,45.77856308221821L462.69609374999993,42.18807961543404L469.83079687500003,35.00715013345086L476.894859375,56.55001348257065L483.958921875,35.00715013345086L490.95234375000007,35.00715013345086L498.087046875,31.416666666666682L505.08046874999997,31.416666666666682L512.215171875,31.416666666666682L519.2085937500001,31.416666666666682L526.343296875,31.416666666666682L533.3367187499999,31.416666666666682L540.4714218749999,35.00715013345086L547.46484375,35.00715013345086L554.599546875,35.00715013345086L561.59296875,31.416666666666682L568.727671875,31.416666666666682L575.72109375,42.18807961543404L582.855796875,35.00715013345086L589.84921875,31.416666666666682L596.9839218750001,31.416666666666682L603.97734375,31.416666666666682L611.112046875,35.00715013345086L618.10546875,35.00715013345086L625.240171875,31.416666666666682L632.2335937500001,31.416666666666682L639.3682968749999,35.00715013345086L646.3617187499999,31.416666666666682L653.496421875,31.416666666666682L660.48984375,35.00715013345086L667.624546875,31.416666666666682L674.6179687499999,35.00715013345086L681.752671875,35.00715013345086L688.74609375,35.00715013345086L695.880796875,45.77856308221821L702.8742187500001,35.00715013345086L710.008921875,31.416666666666682L717.00234375,35.00715013345086L724.137046875,42.18807961543404L731.1304687500001,31.416666666666682L738.265171875,31.416666666666682L745.2585937499999,31.416666666666682L752.3932968749999,42.18807961543404L759.38671875,35.00715013345086L766.521421875,31.416666666666682L773.51484375,31.416666666666682" style="fill: none;" fill="none"/></g></g></g></g></g></g><g transform="translate(51, 377)" clip-path="url(#clip_1)"><clipPath id="clip_1"><rect width="847" height="23"/></clipPath><g><g><line x1="0" y1="0" x2="0" y2="5" style="visibility: inherit;" fill="rgb(0, 0, 0)" stroke="rgb(204, 204, 204)" stroke-width="1px"/><line x1="70.640625" y1="0" x2="70.640625" y2="5" style="visibility: inherit;" fill="rgb(0, 0, 0)" stroke="rgb(204, 204, 204)" stroke-width="1px"/><line x1="141.28125" y1="0" x2="141.28125" y2="5" style="visibility: inherit;" fill="rgb(0, 0, 0)" stroke="rgb(204, 204, 204)" stroke-width="1px"/><line x1="211.921875" y1="0" x2="211.921875" y2="5" style="visibility: inherit;" fill="rgb(0, 0, 0)" stroke="rgb(204, 204, 204)" stroke-width="1px"/><line x1="282.5625" y1="0" x2="282.5625" y2="5" style="visibility: inherit;" fill="rgb(0, 0, 0)" stroke="rgb(204, 204, 204)" stroke-width="1px"/><line x1="353.203125" y1="0" x2="353.203125" y2="5" style="visibility: inherit;" fill="rgb(0, 0, 0)" stroke="rgb(204, 204, 204)" stroke-width="1px"/><line x1="423.84375" y1="0" x2="423.84375" y2="5" style="visibility: inherit;" fill="rgb(0, 0, 0)" stroke="rgb(204, 204, 204)" stroke-width="1px"/><line x1="494.48437500000006" y1="0" x2="494.48437500000006" y2="5" style="visibility: inherit;" fill="rgb(0, 0, 0)" stroke="rgb(204, 204, 204)" stroke-width="1px"/><line x1="565.125" y1="0" x2="565.125" y2="5" style="visibility: inherit;" fill="rgb(0, 0, 0)" stroke="rgb(204, 204, 204)" stroke-width="1px"/><line x1="635.765625" y1="0" x2="635.765625" y2="5" style="visibility: inherit;" fill="rgb(0, 0, 0)" stroke="rgb(204, 204, 204)" stroke-width="1px"/><line x1="706.40625" y1="0" x2="706.40625" y2="5" style="visibility: inherit;" fill="rgb(0, 0, 0)" stroke="rgb(204, 204, 204)" stroke-width="1px"/><line x1="777.046875" y1="0" x2="777.046875" y2="5" style="visibility: inherit;" fill="rgb(0, 0, 0)" stroke="rgb(204, 204, 204)" stroke-width="1px"/><line x1="847.6875" y1="0" x2="847.6875" y2="5" style="visibility: inherit;" fill="rgb(0, 0, 0)" stroke="rgb(204, 204, 204)" stroke-width="1px"/></g><g transform="translate(0, 8)"><text x="0" y="0" dx="0em" dy="0.95em" style="text-anchor: middle; visibility: hidden; font-family: Roboto, sans-serif; font-size: 12px; font-weight: 200;" fill="rgb(255, 255, 255)" stroke="none" stroke-width="1px">-1k</text><text x="70.640625" y="0" dx="0em" dy="0.95em" style="text-anchor: middle; visibility: inherit; font-family: Roboto, sans-serif; font-size: 12px; font-weight: 200;" fill="rgb(255, 255, 255)" stroke="none" stroke-width="1px">0</text><text x="141.28125" y="0" dx="0em" dy="0.95em" style="text-anchor: middle; visibility: inherit; font-family: Roboto, sans-serif; font-size: 12px; font-weight: 200;" fill="rgb(255, 255, 255)" stroke="none" stroke-width="1px">1k</text><text x="211.921875" y="0" dx="0em" dy="0.95em" style="text-anchor: middle; visibility: inherit; font-family: Roboto, sans-serif; font-size: 12px; font-weight: 200;" fill="rgb(255, 255, 255)" stroke="none" stroke-width="1px">2k</text><text x="282.5625" y="0" dx="0em" dy="0.95em" style="text-anchor: middle; visibility: inherit; font-family: Roboto, sans-serif; font-size: 12px; font-weight: 200;" fill="rgb(255, 255, 255)" stroke="none" stroke-width="1px">3k</text><text x="353.203125" y="0" dx="0em" dy="0.95em" style="text-anchor: middle; visibility: inherit; font-family: Roboto, sans-serif; font-size: 12px; font-weight: 200;" fill="rgb(255, 255, 255)" stroke="none" stroke-width="1px">4k</text><text x="423.84375" y="0" dx="0em" dy="0.95em" style="text-anchor: middle; visibility: inherit; font-family: Roboto, sans-serif; font-size: 12px; font-weight: 200;" fill="rgb(255, 255, 255)" stroke="none" stroke-width="1px">5k</text><text x="494.48437500000006" y="0" dx="0em" dy="0.95em" style="text-anchor: middle; visibility: inherit; font-family: Roboto, sans-serif; font-size: 12px; font-weight: 200;" fill="rgb(255, 255, 255)" stroke="none" stroke-width="1px">6k</text><text x="565.125" y="0" dx="0em" dy="0.95em" style="text-anchor: middle; visibility: inherit; font-family: Roboto, sans-serif; font-size: 12px; font-weight: 200;" fill="rgb(255, 255, 255)" stroke="none" stroke-width="1px">7k</text><text x="635.765625" y="0" dx="0em" dy="0.95em" style="text-anchor: middle; visibility: inherit; font-family: Roboto, sans-serif; font-size: 12px; font-weight: 200;" fill="rgb(255, 255, 255)" stroke="none" stroke-width="1px">8k</text><text x="706.40625" y="0" dx="0em" dy="0.95em" style="text-anchor: middle; visibility: inherit; font-family: Roboto, sans-serif; font-size: 12px; font-weight: 200;" fill="rgb(255, 255, 255)" stroke="none" stroke-width="1px">9k</text><text x="777.046875" y="0" dx="0em" dy="0.95em" style="text-anchor: middle; visibility: inherit; font-family: Roboto, sans-serif; font-size: 12px; font-weight: 200;" fill="rgb(255, 255, 255)" stroke="none" stroke-width="1px">10k</text><text x="847.6875" y="0" dx="0em" dy="0.95em" style="text-anchor: middle; visibility: hidden; font-family: Roboto, sans-serif; font-size: 12px; font-weight: 200;" fill="rgb(255, 255, 255)" stroke="none" stroke-width="1px">11k</text></g><line x1="0" y1="0" x2="847.6875" y2="0" fill="rgb(0, 0, 0)" stroke="rgb(204, 204, 204)" stroke-width="1px"/></g></g></g></g></svg>